<svg xmlns="http://www.w3.org/2000/svg" width="1920" height="1080" viewBox="0 0 1920 1080">
  <rect width="1920" height="1080" fill="#0c0a0a"/>
  <defs><clipPath id="c"><rect width="1920" height="1080"/></clipPath></defs>
  <g clip-path="url(#c)" fill="none" stroke-width="1.5" stroke-opacity="0.88" stroke-linecap="round">
    <path d="M422.0 408.0 L432.0 402.0 M432.0 402.0 L456.0 404.0 M456.0 404.0 L459.7 408.0 M401.1 432.0 L408.0 420.9 M422.0 408.0 L408.0 420.9 M459.7 408.0 L462.5 432.0 M401.1 432.0 L400.4 456.0 M462.5 432.0 L459.1 456.0 M400.4 456.0 L408.0 470.0 M408.0 470.0 L420.3 480.0 M452.4 480.0 L456.0 474.8 M459.1 456.0 L456.0 474.8 M420.3 480.0 L432.0 492.0 M452.4 480.0 L432.0 492.0 M455.3 528.0 L456.0 523.2 M456.0 523.2 L459.4 528.0 M455.3 528.0 L456.0 541.0 M459.4 528.0 L456.0 541.0 M458.0 552.0 L480.0 537.7 M480.0 537.7 L486.7 552.0 M458.0 552.0 L480.0 568.5 M486.7 552.0 L480.0 568.5" stroke="#7a2e1c"/>
    <path d="M0.0 105.9 L4.9 120.0 M4.9 120.0 L0.0 137.5 M943.7 240.0 L960.0 230.0 M960.0 230.0 L984.0 238.5 M984.0 238.5 L985.1 240.0 M933.2 264.0 L936.0 253.1 M943.7 240.0 L960.0 260.8 M953.2 264.0 L936.0 253.1 M960.0 260.8 L984.0 240.7 M985.1 240.0 L984.0 240.7 M933.2 264.0 L936.0 266.8 M953.2 264.0 L936.0 266.8 M410.6 384.0 L432.0 371.1 M432.0 371.1 L456.0 362.2 M456.0 362.2 L480.0 360.6 M480.0 360.6 L504.0 371.9 M504.0 371.9 L514.9 384.0 M385.8 408.0 L408.0 385.8 M410.6 384.0 L408.0 385.8 M514.9 384.0 L508.6 408.0 M371.7 432.0 L384.0 410.6 M385.8 408.0 L384.0 410.6 M499.5 432.0 L504.0 417.9 M508.6 408.0 L504.0 417.9 M0.0 440.6 L24.0 432.7 M24.0 432.7 L36.0 456.0 M371.7 432.0 L368.2 456.0 M499.5 432.0 L495.0 456.0 M36.0 456.0 L35.6 480.0 M368.2 456.0 L377.0 480.0 M495.0 456.0 L496.8 480.0 M35.6 480.0 L31.4 504.0 M377.0 480.0 L384.0 491.1 M384.0 491.1 L393.8 504.0 M496.8 480.0 L504.0 497.1 M504.0 497.1 L506.6 504.0 M31.4 504.0 L32.3 528.0 M393.8 504.0 L407.1 528.0 M506.6 504.0 L519.0 528.0 M32.3 528.0 L48.0 547.5 M48.0 547.5 L51.2 552.0 M407.1 528.0 L408.0 530.4 M408.0 530.4 L416.4 552.0 M519.0 528.0 L528.0 545.3 M528.0 545.3 L531.2 552.0 M51.2 552.0 L72.0 567.5 M72.0 567.5 L80.1 576.0 M416.4 552.0 L426.2 576.0 M531.2 552.0 L538.2 576.0 M80.1 576.0 L96.0 592.4 M96.0 592.4 L102.7 600.0 M426.2 576.0 L432.0 583.8 M432.0 583.8 L448.5 600.0 M538.2 576.0 L534.5 600.0 M0.0 603.8 L15.3 624.0 M102.7 600.0 L118.3 624.0 M448.5 600.0 L456.0 604.6 M456.0 604.6 L480.0 613.9 M480.0 613.9 L504.0 616.5 M504.0 616.5 L528.0 606.9 M534.5 600.0 L528.0 606.9 M15.3 624.0 L24.0 632.5 M24.0 632.5 L44.5 648.0 M118.3 624.0 L120.0 633.6 M120.0 633.6 L124.4 648.0 M44.5 648.0 L48.0 650.0 M48.0 650.0 L72.0 657.9 M72.0 657.9 L96.0 661.2 M96.0 661.2 L120.0 653.7 M124.4 648.0 L120.0 653.7 M146.6 744.0 L168.0 724.0 M168.0 724.0 L178.0 744.0 M127.5 768.0 L144.0 745.0 M146.6 744.0 L144.0 745.0 M178.0 744.0 L179.9 768.0 M113.8 792.0 L120.0 777.9 M127.5 768.0 L120.0 777.9 M179.9 768.0 L177.2 792.0 M113.8 792.0 L110.6 816.0 M177.2 792.0 L170.1 816.0 M110.6 816.0 L120.0 839.6 M120.0 839.6 L120.9 840.0 M148.5 840.0 L168.0 820.1 M170.1 816.0 L168.0 820.1 M120.9 840.0 L144.0 843.3 M148.5 840.0 L144.0 843.3 M1711.9 864.0 L1728.0 857.7 M1728.0 857.7 L1752.0 849.0 M1752.0 849.0 L1776.0 852.5 M1776.0 852.5 L1785.1 864.0 M1653.4 888.0 L1656.0 886.2 M1656.0 886.2 L1680.0 876.8 M1680.0 876.8 L1704.0 867.8 M1711.9 864.0 L1704.0 867.8 M1785.1 864.0 L1791.5 888.0 M1653.4 888.0 L1644.9 912.0 M1791.5 888.0 L1789.6 912.0 M1644.9 912.0 L1653.6 936.0 M1789.6 912.0 L1781.2 936.0 M1653.6 936.0 L1656.0 939.4 M1656.0 939.4 L1677.4 960.0 M1766.4 960.0 L1776.0 948.2 M1781.2 936.0 L1776.0 948.2 M1677.4 960.0 L1680.0 963.4 M1680.0 963.4 L1700.8 984.0 M1766.4 960.0 L1758.3 984.0 M1700.8 984.0 L1700.2 1008.0 M1758.3 984.0 L1767.0 1008.0 M1700.2 1008.0 L1691.1 1032.0 M1767.0 1008.0 L1776.0 1024.6 M1776.0 1024.6 L1778.3 1032.0 M1691.1 1032.0 L1681.7 1056.0 M1778.3 1032.0 L1781.3 1056.0 M934.0 1080.0 L936.0 1078.8 M936.0 1078.8 L960.0 1071.9 M960.0 1071.9 L984.0 1074.9 M984.0 1074.9 L988.6 1080.0 M1677.8 1080.0 L1680.0 1063.9 M1681.7 1056.0 L1680.0 1063.9 M1775.6 1080.0 L1776.0 1078.3 M1781.3 1056.0 L1776.0 1078.3 M1916.6 1080.0 L1920.0 1075.4 M1920.0 1075.4 L1923.6 1080.0 M934.0 1080.0 L917.1 1104.0 M988.6 1080.0 L990.2 1104.0 M1677.8 1080.0 L1680.0 1102.9 M1680.0 1102.9 L1680.2 1104.0 M1775.6 1080.0 L1759.2 1104.0 M1916.6 1080.0 L1916.4 1104.0 M1923.6 1080.0 L1925.2 1104.0" stroke="#d14e24"/>
    <path d="M0.0 53.0 L24.0 55.8 M24.0 55.8 L48.0 66.1 M48.0 66.1 L54.7 72.0 M54.7 72.0 L61.8 96.0 M61.8 96.0 L59.8 120.0 M59.8 120.0 L56.7 144.0 M56.7 144.0 L56.1 168.0 M977.2 168.0 L984.0 166.7 M984.0 166.7 L991.4 168.0 M56.1 168.0 L57.4 192.0 M934.4 192.0 L936.0 189.8 M936.0 189.8 L960.0 171.6 M977.2 168.0 L960.0 171.6 M991.4 168.0 L1008.0 171.2 M1008.0 171.2 L1032.0 180.0 M1032.0 180.0 L1056.0 190.1 M1056.0 190.1 L1059.2 192.0 M57.4 192.0 L56.2 216.0 M934.4 192.0 L915.1 216.0 M1059.2 192.0 L1080.0 209.1 M1080.0 209.1 L1085.7 216.0 M56.2 216.0 L49.7 240.0 M900.6 240.0 L912.0 219.9 M915.1 216.0 L912.0 219.9 M1085.7 216.0 L1091.5 240.0 M37.1 264.0 L48.0 244.0 M49.7 240.0 L48.0 244.0 M900.6 240.0 L889.4 264.0 M1091.5 240.0 L1084.3 264.0 M37.1 264.0 L24.8 288.0 M886.4 288.0 L888.0 273.8 M889.4 264.0 L888.0 273.8 M1035.7 288.0 L1056.0 286.1 M1056.0 286.1 L1080.0 270.4 M1084.3 264.0 L1080.0 270.4 M1935.5 288.0 L1944.0 285.2 M1.7 312.0 L24.0 290.5 M24.8 288.0 L24.0 290.5 M886.4 288.0 L888.0 293.5 M888.0 293.5 L904.7 312.0 M939.0 312.0 L960.0 304.4 M960.0 304.4 L984.0 295.5 M984.0 295.5 L1008.0 289.8 M1008.0 289.8 L1032.0 288.3 M1035.7 288.0 L1032.0 288.3 M1910.1 312.0 L1920.0 301.2 M1935.5 288.0 L1920.0 301.2 M1.7 312.0 L0.0 315.6 M461.7 336.0 L480.0 331.6 M480.0 331.6 L504.0 331.4 M504.0 331.4 L528.0 335.1 M528.0 335.1 L531.4 336.0 M904.7 312.0 L912.0 314.9 M912.0 314.9 L936.0 312.9 M939.0 312.0 L936.0 312.9 M1910.1 312.0 L1911.9 336.0 M0.0 359.7 L1.2 360.0 M415.3 360.0 L432.0 348.7 M432.0 348.7 L456.0 337.3 M461.7 336.0 L456.0 337.3 M531.4 336.0 L552.0 343.9 M552.0 343.9 L576.0 357.1 M576.0 357.1 L579.7 360.0 M1911.9 336.0 L1920.0 348.4 M1920.0 348.4 L1926.4 360.0 M1.2 360.0 L24.0 361.5 M24.0 361.5 L42.8 384.0 M386.1 384.0 L408.0 364.9 M415.3 360.0 L408.0 364.9 M579.7 360.0 L587.9 384.0 M1926.4 360.0 L1944.0 377.3 M42.8 384.0 L48.0 388.6 M48.0 388.6 L58.5 408.0 M364.9 408.0 L384.0 386.1 M386.1 384.0 L384.0 386.1 M567.8 408.0 L576.0 399.9 M587.9 384.0 L576.0 399.9 M58.5 408.0 L69.3 432.0 M350.0 432.0 L360.0 415.8 M364.9 408.0 L360.0 415.8 M538.3 432.0 L552.0 418.3 M567.8 408.0 L552.0 418.3 M69.3 432.0 L72.0 442.2 M72.0 442.2 L74.6 456.0 M350.0 432.0 L344.8 456.0 M526.7 456.0 L528.0 452.1 M538.3 432.0 L528.0 452.1 M74.6 456.0 L76.6 480.0 M344.8 456.0 L350.4 480.0 M526.7 456.0 L527.7 480.0 M76.6 480.0 L79.3 504.0 M350.4 480.0 L360.0 497.7 M360.0 497.7 L363.9 504.0 M527.7 480.0 L528.0 480.8 M528.0 480.8 L536.1 504.0 M1788.0 504.0 L1800.0 495.7 M1800.0 495.7 L1824.0 498.8 M1824.0 498.8 L1830.2 504.0 M79.3 504.0 L88.1 528.0 M363.9 504.0 L377.6 528.0 M536.1 504.0 L547.8 528.0 M1773.7 528.0 L1776.0 522.0 M1788.0 504.0 L1776.0 522.0 M1830.2 504.0 L1848.0 521.3 M1848.0 521.3 L1852.8 528.0 M88.1 528.0 L96.0 538.8 M96.0 538.8 L105.3 552.0 M377.6 528.0 L384.0 545.5 M384.0 545.5 L386.4 552.0 M547.8 528.0 L552.0 536.1 M552.0 536.1 L561.4 552.0 M1773.7 528.0 L1775.6 552.0 M1852.8 528.0 L1863.2 552.0 M105.3 552.0 L120.0 568.0 M120.0 568.0 L128.0 576.0 M386.4 552.0 L392.2 576.0 M561.4 552.0 L572.9 576.0 M1775.6 552.0 L1776.0 553.1 M1776.0 553.1 L1785.4 576.0 M1863.2 552.0 L1866.4 576.0 M128.0 576.0 L144.0 591.6 M144.0 591.6 L155.6 600.0 M392.2 576.0 L403.9 600.0 M572.9 576.0 L576.0 590.4 M576.0 590.4 L579.8 600.0 M662.4 600.0 L672.0 594.4 M672.0 594.4 L696.0 584.0 M696.0 584.0 L720.0 578.8 M720.0 578.8 L744.0 577.7 M744.0 577.7 L768.0 578.1 M768.0 578.1 L792.0 583.6 M792.0 583.6 L798.8 600.0 M1785.4 576.0 L1793.3 600.0 M1866.4 576.0 L1866.2 600.0 M155.6 600.0 L168.0 609.6 M168.0 609.6 L192.0 619.5 M192.0 619.5 L216.0 623.4 M216.0 623.4 L228.9 624.0 M403.9 600.0 L408.0 603.5 M408.0 603.5 L432.0 620.5 M432.0 620.5 L438.3 624.0 M571.0 624.0 L576.0 610.4 M579.8 600.0 L576.0 610.4 M646.7 624.0 L648.0 622.3 M662.4 600.0 L648.0 622.3 M798.8 600.0 L796.0 624.0 M1793.3 600.0 L1798.5 624.0 M1866.2 600.0 L1865.6 624.0 M228.9 624.0 L240.0 624.6 M240.0 624.6 L264.0 625.3 M264.0 625.3 L288.0 627.9 M288.0 627.9 L312.0 635.7 M312.0 635.7 L326.4 648.0 M438.3 624.0 L456.0 631.1 M456.0 631.1 L480.0 639.4 M480.0 639.4 L504.0 644.9 M504.0 644.9 L528.0 645.2 M528.0 645.2 L552.0 637.1 M571.0 624.0 L552.0 637.1 M646.7 624.0 L648.0 626.3 M648.0 626.3 L657.4 648.0 M782.6 648.0 L792.0 632.6 M796.0 624.0 L792.0 632.6 M1798.5 624.0 L1800.0 631.5 M1800.0 631.5 L1805.8 648.0 M1865.6 624.0 L1863.9 648.0 M0.0 662.2 L13.0 672.0 M326.4 648.0 L323.3 672.0 M657.4 648.0 L672.0 656.6 M672.0 656.6 L696.0 665.8 M696.0 665.8 L720.0 668.9 M720.0 668.9 L744.0 666.5 M744.0 666.5 L768.0 658.3 M782.6 648.0 L768.0 658.3 M1805.8 648.0 L1815.5 672.0 M1863.9 648.0 L1860.5 672.0 M13.0 672.0 L24.0 679.8 M24.0 679.8 L48.0 694.0 M48.0 694.0 L51.6 696.0 M303.8 696.0 L312.0 686.3 M323.3 672.0 L312.0 686.3 M1815.5 672.0 L1824.0 693.3 M1824.0 693.3 L1830.8 696.0 M1860.5 672.0 L1853.4 696.0 M51.6 696.0 L72.0 713.2 M72.0 713.2 L78.8 720.0 M267.1 720.0 L288.0 706.4 M303.8 696.0 L288.0 706.4 M1830.8 696.0 L1848.0 705.8 M1853.4 696.0 L1848.0 705.8 M78.8 720.0 L84.8 744.0 M234.3 744.0 L240.0 738.4 M240.0 738.4 L264.0 721.7 M267.1 720.0 L264.0 721.7 M84.8 744.0 L80.4 768.0 M234.3 744.0 L217.6 768.0 M80.4 768.0 L75.3 792.0 M206.8 792.0 L216.0 771.3 M217.6 768.0 L216.0 771.3 M75.3 792.0 L73.6 816.0 M206.8 792.0 L197.3 816.0 M1741.2 816.0 L1752.0 810.9 M1752.0 810.9 L1776.0 803.7 M1776.0 803.7 L1800.0 803.7 M1800.0 803.7 L1814.7 816.0 M73.6 816.0 L77.5 840.0 M184.8 840.0 L192.0 827.6 M197.3 816.0 L192.0 827.6 M1685.7 840.0 L1704.0 834.0 M1704.0 834.0 L1728.0 822.4 M1741.2 816.0 L1728.0 822.4 M1814.7 816.0 L1824.0 836.3 M1824.0 836.3 L1825.1 840.0 M77.5 840.0 L90.1 864.0 M167.8 864.0 L168.0 863.9 M184.8 840.0 L168.0 863.9 M1618.4 864.0 L1632.0 853.5 M1632.0 853.5 L1656.0 847.0 M1656.0 847.0 L1680.0 842.0 M1685.7 840.0 L1680.0 842.0 M1825.1 840.0 L1828.4 864.0 M90.1 864.0 L96.0 870.2 M96.0 870.2 L120.0 881.6 M120.0 881.6 L144.0 879.2 M167.8 864.0 L144.0 879.2 M1607.5 888.0 L1608.0 885.7 M1618.4 864.0 L1608.0 885.7 M1828.4 864.0 L1828.8 888.0 M1607.5 888.0 L1608.0 893.5 M1608.0 893.5 L1610.2 912.0 M1828.8 888.0 L1827.0 912.0 M1610.2 912.0 L1620.5 936.0 M1823.6 936.0 L1824.0 933.5 M1827.0 912.0 L1824.0 933.5 M0.0 947.0 L14.3 960.0 M1620.5 936.0 L1632.0 957.0 M1632.0 957.0 L1634.2 960.0 M1823.6 936.0 L1820.3 960.0 M14.3 960.0 L17.0 984.0 M1634.2 960.0 L1650.7 984.0 M1820.3 960.0 L1820.9 984.0 M17.0 984.0 L0.7 1008.0 M1650.7 984.0 L1656.0 1000.0 M1656.0 1000.0 L1659.1 1008.0 M1820.9 984.0 L1824.0 996.6 M1824.0 996.6 L1829.5 1008.0 M1897.8 1008.0 L1920.0 1001.7 M1920.0 1001.7 L1944.0 1005.3 M0.7 1008.0 L0.0 1008.4 M978.2 1032.0 L984.0 1030.6 M984.0 1030.6 L1008.0 1031.4 M1008.0 1031.4 L1008.9 1032.0 M1659.1 1008.0 L1659.4 1032.0 M1829.5 1008.0 L1848.0 1028.1 M1848.0 1028.1 L1872.0 1020.6 M1872.0 1020.6 L1896.0 1008.6 M1897.8 1008.0 L1896.0 1008.6 M906.8 1056.0 L912.0 1053.2 M912.0 1053.2 L936.0 1044.4 M936.0 1044.4 L960.0 1036.8 M978.2 1032.0 L960.0 1036.8 M1008.9 1032.0 L1026.2 1056.0 M1655.7 1056.0 L1656.0 1053.5 M1659.4 1032.0 L1656.0 1053.5 M443.9 1080.0 L456.0 1071.6 M456.0 1071.6 L480.0 1063.8 M480.0 1063.8 L504.0 1072.9 M504.0 1072.9 L510.5 1080.0 M885.1 1080.0 L888.0 1074.6 M906.8 1056.0 L888.0 1074.6 M1026.2 1056.0 L1030.1 1080.0 M1655.7 1056.0 L1651.7 1080.0 M418.5 1104.0 L432.0 1090.1 M443.9 1080.0 L432.0 1090.1 M510.5 1080.0 L526.5 1104.0 M885.1 1080.0 L881.2 1104.0 M1030.1 1080.0 L1028.4 1104.0 M1651.7 1080.0 L1649.2 1104.0 M1812.7 1104.0 L1824.0 1090.7 M1824.0 1090.7 L1848.0 1094.0 M1848.0 1094.0 L1852.5 1104.0" stroke="#ffb45b"/>
    <path d="M862.0 0.0 L864.0 1.0 M865.3 0.0 L864.0 1.0 M1400.1 0.0 L1416.0 1.7 M1416.0 1.7 L1440.0 0.6 M1442.0 0.0 L1440.0 0.6 M0.0 30.5 L24.0 31.6 M24.0 31.6 L48.0 35.2 M48.0 35.2 L72.0 43.4 M72.0 43.4 L79.9 48.0 M79.9 48.0 L93.1 72.0 M93.1 72.0 L93.6 96.0 M93.6 96.0 L90.6 120.0 M90.6 120.0 L88.3 144.0 M934.0 144.0 L936.0 139.9 M936.0 139.9 L960.0 122.9 M960.0 122.9 L984.0 123.1 M984.0 123.1 L1008.0 130.7 M1008.0 130.7 L1032.0 142.5 M1032.0 142.5 L1034.4 144.0 M88.3 144.0 L88.6 168.0 M934.0 144.0 L919.8 168.0 M1034.4 144.0 L1056.0 155.5 M1056.0 155.5 L1077.6 168.0 M88.6 168.0 L90.1 192.0 M905.5 192.0 L912.0 178.8 M919.8 168.0 L912.0 178.8 M1077.6 168.0 L1080.0 169.4 M1080.0 169.4 L1104.0 187.8 M1104.0 187.8 L1108.4 192.0 M90.1 192.0 L88.4 216.0 M905.5 192.0 L891.2 216.0 M1108.4 192.0 L1123.1 216.0 M88.4 216.0 L81.2 240.0 M878.5 240.0 L888.0 221.2 M891.2 216.0 L888.0 221.2 M1123.1 216.0 L1127.5 240.0 M70.3 264.0 L72.0 260.3 M81.2 240.0 L72.0 260.3 M878.5 240.0 L868.1 264.0 M1127.5 240.0 L1124.3 264.0 M70.3 264.0 L60.0 288.0 M862.0 288.0 L864.0 279.8 M868.1 264.0 L864.0 279.8 M1124.3 264.0 L1115.8 288.0 M1834.8 288.0 L1848.0 277.8 M1848.0 277.8 L1872.0 269.8 M1872.0 269.8 L1896.0 268.7 M1896.0 268.7 L1920.0 267.4 M1920.0 267.4 L1944.0 264.0 M60.0 288.0 L54.5 312.0 M464.2 312.0 L480.0 306.5 M480.0 306.5 L504.0 304.9 M504.0 304.9 L528.0 308.4 M528.0 308.4 L541.1 312.0 M862.0 288.0 L862.2 312.0 M1102.8 312.0 L1104.0 310.5 M1115.8 288.0 L1104.0 310.5 M1821.8 312.0 L1824.0 306.2 M1834.8 288.0 L1824.0 306.2 M54.5 312.0 L55.6 336.0 M422.2 336.0 L432.0 328.2 M432.0 328.2 L456.0 314.6 M464.2 312.0 L456.0 314.6 M541.1 312.0 L552.0 315.2 M552.0 315.2 L576.0 325.3 M576.0 325.3 L594.7 336.0 M862.2 312.0 L864.0 318.6 M864.0 318.6 L874.8 336.0 M945.0 336.0 L960.0 331.6 M960.0 331.6 L984.0 326.2 M984.0 326.2 L1008.0 325.5 M1008.0 325.5 L1032.0 331.3 M1032.0 331.3 L1049.4 336.0 M1079.1 336.0 L1080.0 335.9 M1102.8 312.0 L1080.0 335.9 M1821.8 312.0 L1824.0 327.7 M1824.0 327.7 L1826.7 336.0 M55.6 336.0 L63.0 360.0 M392.4 360.0 L408.0 346.1 M422.2 336.0 L408.0 346.1 M594.7 336.0 L600.0 340.3 M600.0 340.3 L619.3 360.0 M874.8 336.0 L888.0 345.7 M888.0 345.7 L912.0 344.7 M912.0 344.7 L936.0 338.6 M945.0 336.0 L936.0 338.6 M1049.4 336.0 L1056.0 338.5 M1079.1 336.0 L1056.0 338.5 M1826.7 336.0 L1848.0 351.6 M1848.0 351.6 L1865.8 360.0 M63.0 360.0 L72.0 377.7 M72.0 377.7 L74.4 384.0 M367.5 384.0 L384.0 367.5 M392.4 360.0 L384.0 367.5 M619.3 360.0 L624.0 371.9 M624.0 371.9 L628.0 384.0 M1865.8 360.0 L1872.0 361.9 M1872.0 361.9 L1896.0 376.1 M1896.0 376.1 L1905.3 384.0 M74.4 384.0 L83.6 408.0 M346.2 408.0 L360.0 392.4 M367.5 384.0 L360.0 392.4 M622.4 408.0 L624.0 403.2 M628.0 384.0 L624.0 403.2 M1905.3 384.0 L1920.0 393.3 M1920.0 393.3 L1941.6 408.0 M83.6 408.0 L91.3 432.0 M330.0 432.0 L336.0 423.6 M346.2 408.0 L336.0 423.6 M595.4 432.0 L600.0 429.0 M622.4 408.0 L600.0 429.0 M1941.6 408.0 L1944.0 409.5 M91.3 432.0 L96.0 451.0 M96.0 451.0 L97.1 456.0 M330.0 432.0 L322.8 456.0 M565.7 456.0 L576.0 445.6 M595.4 432.0 L576.0 445.6 M830.8 456.0 L840.0 447.2 M840.0 447.2 L864.0 443.5 M864.0 443.5 L874.4 456.0 M1772.5 456.0 L1776.0 452.2 M1776.0 452.2 L1800.0 435.9 M1800.0 435.9 L1824.0 436.3 M1824.0 436.3 L1844.9 456.0 M97.1 456.0 L101.6 480.0 M322.8 456.0 L325.4 480.0 M565.7 456.0 L559.7 480.0 M808.7 480.0 L816.0 470.5 M830.8 456.0 L816.0 470.5 M874.4 456.0 L887.0 480.0 M1300.2 480.0 L1320.0 474.2 M1320.0 474.2 L1344.0 466.9 M1344.0 466.9 L1368.0 460.7 M1368.0 460.7 L1392.0 458.8 M1392.0 458.8 L1416.0 476.9 M1416.0 476.9 L1417.3 480.0 M1748.0 480.0 L1752.0 475.8 M1772.5 456.0 L1752.0 475.8 M1844.9 456.0 L1848.0 458.6 M1848.0 458.6 L1865.0 480.0 M101.6 480.0 L108.1 504.0 M325.4 480.0 L335.7 504.0 M559.7 480.0 L566.3 504.0 M789.8 504.0 L792.0 501.4 M808.7 480.0 L792.0 501.4 M887.0 480.0 L888.0 483.4 M888.0 483.4 L891.7 504.0 M1273.5 504.0 L1296.0 483.9 M1300.2 480.0 L1296.0 483.9 M1410.6 504.0 L1416.0 485.3 M1417.3 480.0 L1416.0 485.3 M1748.0 480.0 L1728.5 504.0 M1865.0 480.0 L1872.0 488.3 M1872.0 488.3 L1884.6 504.0 M108.1 504.0 L120.0 526.9 M120.0 526.9 L120.7 528.0 M335.7 504.0 L336.0 504.7 M336.0 504.7 L346.5 528.0 M566.3 504.0 L576.0 522.8 M576.0 522.8 L579.8 528.0 M766.7 528.0 L768.0 527.2 M789.8 504.0 L768.0 527.2 M891.7 504.0 L892.9 528.0 M1273.5 504.0 L1294.7 528.0 M1410.6 504.0 L1398.0 528.0 M1721.5 528.0 L1728.0 505.5 M1728.5 504.0 L1728.0 505.5 M1884.6 504.0 L1896.0 521.4 M1896.0 521.4 L1900.4 528.0 M120.7 528.0 L141.3 552.0 M346.5 528.0 L351.2 552.0 M579.8 528.0 L600.0 551.2 M600.0 551.2 L601.5 552.0 M684.7 552.0 L696.0 549.4 M696.0 549.4 L720.0 545.0 M720.0 545.0 L744.0 539.6 M766.7 528.0 L744.0 539.6 M887.2 552.0 L888.0 549.7 M892.9 528.0 L888.0 549.7 M1294.7 528.0 L1296.0 528.6 M1296.0 528.6 L1320.0 550.3 M1320.0 550.3 L1321.9 552.0 M1383.8 552.0 L1392.0 541.2 M1398.0 528.0 L1392.0 541.2 M1721.5 528.0 L1727.8 552.0 M1900.4 528.0 L1907.9 552.0 M141.3 552.0 L144.0 554.7 M144.0 554.7 L168.0 573.5 M168.0 573.5 L172.8 576.0 M351.2 552.0 L343.1 576.0 M601.5 552.0 L624.0 563.1 M624.0 563.1 L648.0 561.1 M648.0 561.1 L672.0 555.0 M684.7 552.0 L672.0 555.0 M887.2 552.0 L869.8 576.0 M1321.9 552.0 L1343.5 576.0 M1383.8 552.0 L1372.5 576.0 M1727.8 552.0 L1728.0 552.2 M1728.0 552.2 L1743.9 576.0 M1907.9 552.0 L1907.4 576.0 M172.8 576.0 L192.0 585.8 M192.0 585.8 L216.0 592.2 M216.0 592.2 L240.0 594.8 M240.0 594.8 L264.0 595.1 M264.0 595.1 L288.0 593.8 M288.0 593.8 L312.0 590.5 M312.0 590.5 L336.0 582.3 M343.1 576.0 L336.0 582.3 M848.3 600.0 L864.0 581.8 M869.8 576.0 L864.0 581.8 M1343.5 576.0 L1344.0 578.1 M1344.0 578.1 L1358.5 600.0 M1372.5 576.0 L1372.1 600.0 M1743.9 576.0 L1752.0 587.8 M1752.0 587.8 L1759.0 600.0 M1907.4 576.0 L1903.8 600.0 M832.8 624.0 L840.0 611.5 M848.3 600.0 L840.0 611.5 M1343.4 624.0 L1344.0 620.5 M1358.5 600.0 L1344.0 620.5 M1372.1 600.0 L1383.9 624.0 M1759.0 600.0 L1769.0 624.0 M1903.8 600.0 L1901.9 624.0 M395.4 648.0 L408.0 644.3 M408.0 644.3 L432.0 647.3 M432.0 647.3 L434.1 648.0 M832.8 624.0 L820.1 648.0 M1343.4 624.0 L1334.3 648.0 M1383.9 624.0 L1392.0 638.0 M1392.0 638.0 L1394.5 648.0 M1769.0 624.0 L1775.7 648.0 M1901.9 624.0 L1902.4 648.0 M365.0 672.0 L384.0 651.9 M395.4 648.0 L384.0 651.9 M434.1 648.0 L456.0 654.2 M456.0 654.2 L480.0 662.7 M480.0 662.7 L504.0 670.8 M504.0 670.8 L510.3 672.0 M579.1 672.0 L600.0 669.7 M600.0 669.7 L611.2 672.0 M801.0 672.0 L816.0 654.4 M820.1 648.0 L816.0 654.4 M1334.3 648.0 L1320.4 672.0 M1394.5 648.0 L1395.9 672.0 M1775.7 648.0 L1776.0 649.4 M1776.0 649.4 L1782.1 672.0 M1902.4 648.0 L1905.8 672.0 M342.4 696.0 L360.0 676.5 M365.0 672.0 L360.0 676.5 M510.3 672.0 L528.0 676.8 M528.0 676.8 L552.0 676.9 M552.0 676.9 L576.0 672.3 M579.1 672.0 L576.0 672.3 M611.2 672.0 L624.0 673.8 M624.0 673.8 L648.0 680.5 M648.0 680.5 L672.0 686.5 M672.0 686.5 L696.0 690.0 M696.0 690.0 L720.0 691.3 M720.0 691.3 L744.0 690.4 M744.0 690.4 L768.0 687.0 M768.0 687.0 L792.0 678.6 M801.0 672.0 L792.0 678.6 M1307.3 696.0 L1320.0 672.5 M1320.4 672.0 L1320.0 672.5 M1389.4 696.0 L1392.0 687.5 M1395.9 672.0 L1392.0 687.5 M1782.1 672.0 L1787.6 696.0 M1905.8 672.0 L1913.7 696.0 M0.0 710.7 L11.1 720.0 M312.9 720.0 L336.0 701.4 M342.4 696.0 L336.0 701.4 M1294.2 720.0 L1296.0 715.7 M1307.3 696.0 L1296.0 715.7 M1389.4 696.0 L1377.3 720.0 M1787.6 696.0 L1790.4 720.0 M1913.7 696.0 L1920.0 709.1 M1920.0 709.1 L1926.1 720.0 M11.1 720.0 L24.0 738.8 M24.0 738.8 L27.2 744.0 M272.2 744.0 L288.0 734.2 M288.0 734.2 L312.0 720.6 M312.9 720.0 L312.0 720.6 M1294.2 720.0 L1291.7 744.0 M1364.2 744.0 L1368.0 738.2 M1377.3 720.0 L1368.0 738.2 M1790.4 720.0 L1787.3 744.0 M1926.1 720.0 L1936.4 744.0 M27.2 744.0 L32.6 768.0 M244.3 768.0 L264.0 749.4 M272.2 744.0 L264.0 749.4 M1291.7 744.0 L1296.0 758.8 M1296.0 758.8 L1302.4 768.0 M1364.2 744.0 L1347.1 768.0 M1770.4 768.0 L1776.0 760.9 M1787.3 744.0 L1776.0 760.9 M1936.4 744.0 L1939.7 768.0 M32.6 768.0 L34.3 792.0 M228.9 792.0 L240.0 773.5 M244.3 768.0 L240.0 773.5 M1302.4 768.0 L1320.0 780.6 M1320.0 780.6 L1344.0 771.7 M1347.1 768.0 L1344.0 771.7 M1731.1 792.0 L1752.0 780.3 M1770.4 768.0 L1752.0 780.3 M1939.7 768.0 L1933.5 792.0 M34.3 792.0 L35.9 816.0 M228.9 792.0 L217.6 816.0 M1631.3 816.0 L1632.0 815.8 M1632.0 815.8 L1656.0 815.6 M1656.0 815.6 L1680.0 812.9 M1680.0 812.9 L1704.0 805.1 M1704.0 805.1 L1728.0 793.6 M1731.1 792.0 L1728.0 793.6 M1917.2 816.0 L1920.0 813.4 M1933.5 792.0 L1920.0 813.4 M35.9 816.0 L38.6 840.0 M205.6 840.0 L216.0 819.3 M217.6 816.0 L216.0 819.3 M1593.8 840.0 L1608.0 822.7 M1631.3 816.0 L1608.0 822.7 M1890.5 840.0 L1896.0 834.4 M1917.2 816.0 L1896.0 834.4 M38.6 840.0 L42.1 864.0 M205.6 840.0 L192.7 864.0 M1583.9 864.0 L1584.0 863.4 M1593.8 840.0 L1584.0 863.4 M1890.5 840.0 L1875.1 864.0 M42.1 864.0 L41.5 888.0 M173.0 888.0 L192.0 865.1 M192.7 864.0 L192.0 865.1 M1583.9 864.0 L1583.2 888.0 M1868.6 888.0 L1872.0 871.6 M1875.1 864.0 L1872.0 871.6 M0.0 902.7 L24.0 898.5 M41.5 888.0 L24.0 898.5 M131.1 912.0 L144.0 908.5 M144.0 908.5 L168.0 893.5 M173.0 888.0 L168.0 893.5 M1583.2 888.0 L1584.0 891.7 M1584.0 891.7 L1588.7 912.0 M1868.6 888.0 L1866.1 912.0 M68.6 936.0 L72.0 929.3 M72.0 929.3 L96.0 919.3 M96.0 919.3 L120.0 915.8 M131.1 912.0 L120.0 915.8 M1588.7 912.0 L1598.6 936.0 M1866.1 912.0 L1867.5 936.0 M68.6 936.0 L63.9 960.0 M1598.6 936.0 L1608.0 954.9 M1608.0 954.9 L1611.0 960.0 M1867.5 936.0 L1872.0 946.9 M1872.0 946.9 L1896.0 955.7 M1896.0 955.7 L1920.0 948.8 M1920.0 948.8 L1944.0 943.2 M63.9 960.0 L58.5 984.0 M1611.0 960.0 L1624.9 984.0 M47.3 1008.0 L48.0 1006.7 M58.5 984.0 L48.0 1006.7 M972.9 1008.0 L984.0 1004.2 M984.0 1004.2 L1008.0 999.2 M1008.0 999.2 L1032.0 1005.0 M1032.0 1005.0 L1034.5 1008.0 M1624.9 984.0 L1632.0 1002.4 M1632.0 1002.4 L1634.4 1008.0 M10.9 1032.0 L24.0 1026.0 M47.3 1008.0 L24.0 1026.0 M892.3 1032.0 L912.0 1025.4 M912.0 1025.4 L936.0 1019.3 M936.0 1019.3 L960.0 1012.2 M972.9 1008.0 L960.0 1012.2 M1034.5 1008.0 L1046.3 1032.0 M1634.4 1008.0 L1637.6 1032.0 M10.9 1032.0 L0.0 1034.8 M443.7 1056.0 L456.0 1047.2 M456.0 1047.2 L480.0 1037.0 M480.0 1037.0 L504.0 1041.1 M504.0 1041.1 L520.7 1056.0 M864.9 1056.0 L888.0 1033.9 M892.3 1032.0 L888.0 1033.9 M1046.3 1032.0 L1050.8 1056.0 M1637.6 1032.0 L1635.0 1056.0 M415.0 1080.0 L432.0 1064.8 M443.7 1056.0 L432.0 1064.8 M520.7 1056.0 L528.0 1063.9 M528.0 1063.9 L539.8 1080.0 M858.6 1080.0 L864.0 1058.1 M864.9 1056.0 L864.0 1058.1 M1050.8 1056.0 L1052.2 1080.0 M1628.9 1080.0 L1632.0 1068.9 M1635.0 1056.0 L1632.0 1068.9 M391.4 1104.0 L408.0 1087.2 M415.0 1080.0 L408.0 1087.2 M539.8 1080.0 L552.0 1097.9 M552.0 1097.9 L556.9 1104.0 M858.6 1080.0 L858.7 1104.0 M1052.2 1080.0 L1051.4 1104.0 M1628.9 1080.0 L1620.4 1104.0" stroke="#7a2e1c"/>
    <path d="M0.0 12.2 L24.0 12.5 M24.0 12.5 L48.0 13.7 M48.0 13.7 L72.0 15.7 M72.0 15.7 L96.0 17.9 M96.0 17.9 L120.0 20.0 M120.0 20.0 L134.5 24.0 M802.4 0.0 L816.0 23.2 M816.0 23.2 L816.6 24.0 M922.9 0.0 L926.8 24.0 M1283.3 0.0 L1296.0 13.3 M1296.0 13.3 L1320.0 19.6 M1320.0 19.6 L1344.0 21.3 M1344.0 21.3 L1368.0 23.8 M1368.0 23.8 L1369.3 24.0 M1514.7 0.0 L1524.5 24.0 M1751.3 0.0 L1752.0 0.5 M1752.0 0.5 L1776.0 9.0 M1776.0 9.0 L1800.0 3.3 M1803.4 0.0 L1800.0 3.3 M134.5 24.0 L133.9 48.0 M816.6 24.0 L838.4 48.0 M926.8 24.0 L936.0 43.5 M936.0 43.5 L939.3 48.0 M1369.3 24.0 L1392.0 30.6 M1392.0 30.6 L1416.0 38.1 M1416.0 38.1 L1440.0 46.2 M1440.0 46.2 L1445.2 48.0 M1524.5 24.0 L1536.0 35.8 M1536.0 35.8 L1556.4 48.0 M133.9 48.0 L127.6 72.0 M838.4 48.0 L840.0 49.3 M840.0 49.3 L864.0 65.2 M864.0 65.2 L875.1 72.0 M939.3 48.0 L960.0 63.9 M960.0 63.9 L976.0 72.0 M1445.2 48.0 L1464.0 58.0 M1464.0 58.0 L1485.1 72.0 M1556.4 48.0 L1560.0 50.1 M1560.0 50.1 L1584.0 64.7 M1584.0 64.7 L1593.7 72.0 M127.6 72.0 L122.2 96.0 M875.1 72.0 L888.0 83.6 M888.0 83.6 L898.0 96.0 M976.0 72.0 L984.0 75.3 M984.0 75.3 L1008.0 86.3 M1008.0 86.3 L1023.4 96.0 M1485.1 72.0 L1488.0 74.0 M1488.0 74.0 L1511.7 96.0 M1593.7 72.0 L1605.1 96.0 M118.7 120.0 L120.0 110.6 M122.2 96.0 L120.0 110.6 M898.0 96.0 L903.6 120.0 M1023.4 96.0 L1032.0 100.9 M1032.0 100.9 L1055.9 120.0 M1511.7 96.0 L1512.0 96.3 M1512.0 96.3 L1530.4 120.0 M1605.1 96.0 L1598.6 120.0 M118.7 120.0 L118.1 144.0 M903.6 120.0 L901.7 144.0 M1055.9 120.0 L1056.0 120.0 M1056.0 120.0 L1080.0 137.0 M1080.0 137.0 L1089.5 144.0 M1530.4 120.0 L1536.0 130.6 M1536.0 130.6 L1545.5 144.0 M1598.6 120.0 L1590.0 144.0 M118.1 144.0 L120.0 163.7 M120.0 163.7 L120.5 168.0 M901.7 144.0 L894.8 168.0 M1089.5 144.0 L1104.0 153.5 M1104.0 153.5 L1122.7 168.0 M1545.5 144.0 L1555.9 168.0 M1590.0 144.0 L1585.9 168.0 M120.5 168.0 L123.2 192.0 M884.3 192.0 L888.0 182.3 M894.8 168.0 L888.0 182.3 M1122.7 168.0 L1128.0 173.1 M1128.0 173.1 L1143.4 192.0 M1555.9 168.0 L1560.0 180.9 M1560.0 180.9 L1578.8 192.0 M1585.9 168.0 L1584.7 192.0 M123.2 192.0 L122.2 216.0 M884.3 192.0 L872.6 216.0 M1143.4 192.0 L1152.0 211.0 M1152.0 211.0 L1154.1 216.0 M1578.8 192.0 L1584.0 197.5 M1584.7 192.0 L1584.0 197.5 M114.4 240.0 L120.0 222.4 M122.2 216.0 L120.0 222.4 M860.2 240.0 L864.0 232.3 M872.6 216.0 L864.0 232.3 M1154.1 216.0 L1159.2 240.0 M1818.8 240.0 L1824.0 235.6 M1824.0 235.6 L1848.0 227.1 M1848.0 227.1 L1872.0 231.1 M1872.0 231.1 L1896.0 239.5 M1896.0 239.5 L1897.8 240.0 M114.4 240.0 L100.9 264.0 M860.2 240.0 L849.6 264.0 M1159.2 240.0 L1160.8 264.0 M1795.9 264.0 L1800.0 258.7 M1818.8 240.0 L1800.0 258.7 M1897.8 240.0 L1920.0 245.5 M1920.0 245.5 L1944.0 246.0 M88.3 288.0 L96.0 272.2 M100.9 264.0 L96.0 272.2 M462.2 288.0 L480.0 280.6 M480.0 280.6 L504.0 278.9 M504.0 278.9 L528.0 283.3 M528.0 283.3 L541.0 288.0 M849.6 264.0 L841.9 288.0 M1160.8 264.0 L1161.0 288.0 M1795.9 264.0 L1780.9 288.0 M88.3 288.0 L81.4 312.0 M426.8 312.0 L432.0 306.8 M432.0 306.8 L456.0 290.3 M462.2 288.0 L456.0 290.3 M541.0 288.0 L552.0 291.5 M552.0 291.5 L576.0 301.9 M576.0 301.9 L595.3 312.0 M838.1 312.0 L840.0 300.6 M841.9 288.0 L840.0 300.6 M1161.0 288.0 L1164.5 312.0 M1773.2 312.0 L1776.0 302.3 M1780.9 288.0 L1776.0 302.3 M81.4 312.0 L81.3 336.0 M399.4 336.0 L408.0 327.3 M426.8 312.0 L408.0 327.3 M595.3 312.0 L600.0 314.7 M600.0 314.7 L624.0 331.6 M624.0 331.6 L629.4 336.0 M838.1 312.0 L838.5 336.0 M1164.5 312.0 L1176.0 332.6 M1176.0 332.6 L1179.2 336.0 M1773.2 312.0 L1773.0 336.0 M81.3 336.0 L86.8 360.0 M373.9 360.0 L384.0 349.8 M399.4 336.0 L384.0 349.8 M629.4 336.0 L648.0 359.3 M648.0 359.3 L648.5 360.0 M838.5 336.0 L840.0 352.1 M840.0 352.1 L841.2 360.0 M951.6 360.0 L960.0 357.8 M960.0 357.8 L984.0 356.3 M984.0 356.3 L999.2 360.0 M1179.2 336.0 L1200.0 354.9 M1200.0 354.9 L1205.4 360.0 M1773.0 336.0 L1775.7 360.0 M86.8 360.0 L95.4 384.0 M349.8 384.0 L360.0 373.9 M373.9 360.0 L360.0 373.9 M648.5 360.0 L655.6 384.0 M839.6 384.0 L840.0 377.2 M841.2 360.0 L840.0 377.2 M905.0 384.0 L912.0 379.4 M912.0 379.4 L936.0 365.3 M951.6 360.0 L936.0 365.3 M999.2 360.0 L1008.0 362.8 M1008.0 362.8 L1032.0 377.1 M1032.0 377.1 L1042.1 384.0 M1205.4 360.0 L1224.0 382.9 M1224.0 382.9 L1224.7 384.0 M1775.7 360.0 L1775.9 384.0 M95.4 384.0 L96.0 385.7 M96.0 385.7 L103.1 408.0 M327.5 408.0 L336.0 399.5 M349.8 384.0 L336.0 399.5 M655.6 384.0 L654.6 408.0 M839.6 384.0 L828.2 408.0 M905.0 384.0 L897.2 408.0 M1042.1 384.0 L1056.0 393.8 M1056.0 393.8 L1080.0 406.6 M1080.0 406.6 L1087.8 408.0 M1131.1 408.0 L1152.0 403.7 M1152.0 403.7 L1176.0 402.7 M1176.0 402.7 L1190.3 408.0 M1224.7 384.0 L1248.0 406.3 M1248.0 406.3 L1249.7 408.0 M1775.9 384.0 L1769.6 408.0 M103.1 408.0 L110.1 432.0 M309.6 432.0 L312.0 429.2 M327.5 408.0 L312.0 429.2 M645.9 432.0 L648.0 427.9 M654.6 408.0 L648.0 427.9 M808.8 432.0 L816.0 421.8 M828.2 408.0 L816.0 421.8 M897.2 408.0 L902.3 432.0 M1087.8 408.0 L1104.0 410.6 M1104.0 410.6 L1128.0 408.4 M1131.1 408.0 L1128.0 408.4 M1190.3 408.0 L1199.7 432.0 M1249.7 408.0 L1272.0 421.1 M1272.0 421.1 L1296.0 430.5 M1296.0 430.5 L1305.4 432.0 M1350.3 432.0 L1368.0 429.8 M1368.0 429.8 L1392.0 426.9 M1392.0 426.9 L1416.0 427.9 M1416.0 427.9 L1428.8 432.0 M1769.6 408.0 L1754.3 432.0 M110.1 432.0 L116.7 456.0 M309.6 432.0 L299.7 456.0 M645.9 432.0 L627.9 456.0 M790.1 456.0 L792.0 453.5 M808.8 432.0 L792.0 453.5 M902.3 432.0 L908.7 456.0 M1199.7 432.0 L1191.2 456.0 M1305.4 432.0 L1320.0 434.1 M1320.0 434.1 L1344.0 433.0 M1350.3 432.0 L1344.0 433.0 M1428.8 432.0 L1440.0 438.6 M1440.0 438.6 L1455.1 456.0 M1733.2 456.0 L1752.0 434.5 M1754.3 432.0 L1752.0 434.5 M1914.8 456.0 L1920.0 451.3 M1920.0 451.3 L1942.1 456.0 M116.7 456.0 L120.0 467.7 M120.0 467.7 L124.3 480.0 M299.7 456.0 L298.8 480.0 M612.1 480.0 L624.0 463.4 M627.9 456.0 L624.0 463.4 M790.1 456.0 L770.5 480.0 M908.7 456.0 L912.0 469.8 M912.0 469.8 L914.1 480.0 M1191.2 456.0 L1179.1 480.0 M1455.1 456.0 L1457.4 480.0 M1709.9 480.0 L1728.0 461.3 M1733.2 456.0 L1728.0 461.3 M1914.8 456.0 L1920.0 467.2 M1942.1 456.0 L1944.0 456.8 M1927.6 480.0 L1920.0 467.2 M124.3 480.0 L135.4 504.0 M298.8 480.0 L304.0 504.0 M612.1 480.0 L623.0 504.0 M736.0 504.0 L744.0 501.3 M744.0 501.3 L768.0 482.8 M770.5 480.0 L768.0 482.8 M914.1 480.0 L919.6 504.0 M1169.3 504.0 L1176.0 486.3 M1179.1 480.0 L1176.0 486.3 M1457.4 480.0 L1449.1 504.0 M1692.8 504.0 L1704.0 487.8 M1709.9 480.0 L1704.0 487.8 M1927.6 480.0 L1944.0 502.4 M135.4 504.0 L144.0 516.9 M144.0 516.9 L154.4 528.0 M304.0 504.0 L308.6 528.0 M623.0 504.0 L624.0 504.7 M624.0 504.7 L648.0 511.7 M648.0 511.7 L672.0 513.1 M672.0 513.1 L696.0 512.3 M696.0 512.3 L720.0 509.3 M736.0 504.0 L720.0 509.3 M919.6 504.0 L925.6 528.0 M1169.3 504.0 L1167.1 528.0 M1436.2 528.0 L1440.0 521.2 M1449.1 504.0 L1440.0 521.2 M1692.8 504.0 L1685.7 528.0 M154.4 528.0 L168.0 540.1 M168.0 540.1 L188.2 552.0 M308.6 528.0 L296.5 552.0 M925.6 528.0 L930.1 552.0 M1167.1 528.0 L1176.0 551.1 M1176.0 551.1 L1176.7 552.0 M1436.2 528.0 L1424.8 552.0 M1685.7 528.0 L1690.0 552.0 M188.2 552.0 L192.0 554.0 M192.0 554.0 L216.0 561.1 M216.0 561.1 L240.0 563.8 M240.0 563.8 L264.0 562.9 M264.0 562.9 L288.0 556.8 M296.5 552.0 L288.0 556.8 M930.1 552.0 L924.5 576.0 M1176.7 552.0 L1200.0 562.1 M1200.0 562.1 L1224.0 564.2 M1224.0 564.2 L1248.0 565.6 M1248.0 565.6 L1272.0 572.2 M1272.0 572.2 L1278.0 576.0 M1424.8 552.0 L1418.9 576.0 M1690.0 552.0 L1704.0 572.3 M1704.0 572.3 L1706.7 576.0 M894.5 600.0 L912.0 585.5 M924.5 576.0 L912.0 585.5 M1278.0 576.0 L1296.0 592.1 M1296.0 592.1 L1301.2 600.0 M1418.9 576.0 L1419.1 600.0 M1706.7 576.0 L1728.0 598.8 M1728.0 598.8 L1728.8 600.0 M1940.8 600.0 L1944.0 589.2 M865.9 624.0 L888.0 603.8 M894.5 600.0 L888.0 603.8 M1301.2 600.0 L1306.2 624.0 M1419.1 600.0 L1423.6 624.0 M1728.8 600.0 L1743.6 624.0 M1940.8 600.0 L1937.3 624.0 M848.6 648.0 L864.0 625.9 M865.9 624.0 L864.0 625.9 M1306.2 624.0 L1302.4 648.0 M1423.6 624.0 L1428.7 648.0 M1743.6 624.0 L1752.0 644.9 M1752.0 644.9 L1753.0 648.0 M1937.3 624.0 L1939.6 648.0 M431.8 672.0 L432.0 672.0 M432.0 672.0 L432.1 672.0 M833.5 672.0 L840.0 661.8 M848.6 648.0 L840.0 661.8 M1292.2 672.0 L1296.0 662.8 M1302.4 648.0 L1296.0 662.8 M1428.7 648.0 L1428.9 672.0 M1753.0 648.0 L1758.7 672.0 M1939.6 648.0 L1944.0 660.3 M374.9 696.0 L384.0 687.8 M384.0 687.8 L408.0 674.8 M431.8 672.0 L408.0 674.8 M432.1 672.0 L456.0 677.5 M456.0 677.5 L480.0 688.4 M480.0 688.4 L494.6 696.0 M811.0 696.0 L816.0 692.7 M833.5 672.0 L816.0 692.7 M1292.2 672.0 L1279.3 696.0 M1428.9 672.0 L1420.8 696.0 M1556.6 696.0 L1560.0 692.2 M1560.0 692.2 L1584.0 690.1 M1584.0 690.1 L1592.4 696.0 M1758.7 672.0 L1762.2 696.0 M345.2 720.0 L360.0 707.4 M374.9 696.0 L360.0 707.4 M494.6 696.0 L504.0 704.1 M504.0 704.1 L525.8 720.0 M580.6 720.0 L600.0 711.5 M600.0 711.5 L624.0 706.4 M624.0 706.4 L648.0 706.3 M648.0 706.3 L672.0 707.9 M672.0 707.9 L696.0 709.1 M696.0 709.1 L720.0 709.5 M720.0 709.5 L744.0 709.2 M744.0 709.2 L768.0 708.1 M768.0 708.1 L792.0 704.6 M811.0 696.0 L792.0 704.6 M1269.7 720.0 L1272.0 713.5 M1279.3 696.0 L1272.0 713.5 M1406.8 720.0 L1416.0 703.3 M1420.8 696.0 L1416.0 703.3 M1556.6 696.0 L1555.4 720.0 M1592.4 696.0 L1608.0 712.2 M1608.0 712.2 L1612.7 720.0 M1762.2 696.0 L1761.6 720.0 M309.5 744.0 L312.0 742.5 M312.0 742.5 L336.0 726.7 M345.2 720.0 L336.0 726.7 M525.8 720.0 L528.0 723.2 M528.0 723.2 L552.0 735.3 M552.0 735.3 L576.0 723.4 M580.6 720.0 L576.0 723.4 M1269.7 720.0 L1267.9 744.0 M1406.8 720.0 L1392.6 744.0 M1555.4 720.0 L1560.0 736.9 M1560.0 736.9 L1563.1 744.0 M1612.7 720.0 L1625.1 744.0 M1761.6 720.0 L1752.3 744.0 M272.3 768.0 L288.0 756.8 M309.5 744.0 L288.0 756.8 M1267.9 744.0 L1272.0 763.2 M1272.0 763.2 L1273.3 768.0 M1378.5 768.0 L1392.0 745.1 M1392.6 744.0 L1392.0 745.1 M1563.1 744.0 L1572.8 768.0 M1625.1 744.0 L1632.0 753.0 M1632.0 753.0 L1645.4 768.0 M1720.1 768.0 L1728.0 764.3 M1728.0 764.3 L1752.0 744.3 M1752.3 744.0 L1752.0 744.3 M250.1 792.0 L264.0 775.2 M272.3 768.0 L264.0 775.2 M1273.3 768.0 L1286.8 792.0 M1362.1 792.0 L1368.0 785.0 M1378.5 768.0 L1368.0 785.0 M1572.8 768.0 L1573.9 792.0 M1645.4 768.0 L1656.0 773.7 M1656.0 773.7 L1680.0 778.9 M1680.0 778.9 L1704.0 774.8 M1720.1 768.0 L1704.0 774.8 M235.8 816.0 L240.0 808.0 M250.1 792.0 L240.0 808.0 M1286.8 792.0 L1296.0 804.6 M1296.0 804.6 L1317.3 816.0 M1324.8 816.0 L1344.0 810.3 M1362.1 792.0 L1344.0 810.3 M1573.9 792.0 L1569.2 816.0 M235.8 816.0 L223.7 840.0 M1040.5 840.0 L1056.0 831.3 M1056.0 831.3 L1080.0 832.0 M1080.0 832.0 L1096.4 840.0 M1317.3 816.0 L1320.0 817.4 M1324.8 816.0 L1320.0 817.4 M1569.2 816.0 L1563.3 840.0 M211.3 864.0 L216.0 855.3 M223.7 840.0 L216.0 855.3 M1028.6 864.0 L1032.0 854.3 M1040.5 840.0 L1032.0 854.3 M1096.4 840.0 L1104.0 844.4 M1104.0 844.4 L1124.1 864.0 M1563.3 840.0 L1560.6 864.0 M211.3 864.0 L196.9 888.0 M1028.6 864.0 L1029.4 888.0 M1124.1 864.0 L1128.0 870.8 M1128.0 870.8 L1136.2 888.0 M1560.6 864.0 L1563.0 888.0 M176.9 912.0 L192.0 895.5 M196.9 888.0 L192.0 895.5 M1029.4 888.0 L1032.0 904.1 M1032.0 904.1 L1033.4 912.0 M1136.2 888.0 L1134.9 912.0 M1563.0 888.0 L1570.1 912.0 M146.2 936.0 L168.0 921.2 M176.9 912.0 L168.0 921.2 M1033.4 912.0 L1036.1 936.0 M1114.2 936.0 L1128.0 921.6 M1134.9 912.0 L1128.0 921.6 M1570.1 912.0 L1580.3 936.0 M112.7 960.0 L120.0 954.0 M120.0 954.0 L144.0 937.8 M146.2 936.0 L144.0 937.8 M1024.3 960.0 L1032.0 945.9 M1036.1 936.0 L1032.0 945.9 M1080.4 960.0 L1104.0 943.5 M1114.2 936.0 L1104.0 943.5 M1580.3 936.0 L1584.0 943.5 M1584.0 943.5 L1592.6 960.0 M112.7 960.0 L97.3 984.0 M970.0 984.0 L984.0 977.9 M984.0 977.9 L1008.0 967.5 M1024.3 960.0 L1008.0 967.5 M1065.7 984.0 L1080.0 960.5 M1080.4 960.0 L1080.0 960.5 M1592.6 960.0 L1604.4 984.0 M87.2 1008.0 L96.0 987.0 M97.3 984.0 L96.0 987.0 M868.2 1008.0 L888.0 1000.6 M888.0 1000.6 L912.0 997.8 M912.0 997.8 L936.0 994.2 M936.0 994.2 L960.0 987.6 M970.0 984.0 L960.0 987.6 M1065.7 984.0 L1066.5 1008.0 M1604.4 984.0 L1608.0 993.5 M1608.0 993.5 L1614.1 1008.0 M87.2 1008.0 L73.6 1032.0 M449.4 1032.0 L456.0 1026.7 M456.0 1026.7 L480.0 1014.6 M480.0 1014.6 L504.0 1015.0 M504.0 1015.0 L526.3 1032.0 M844.6 1032.0 L864.0 1009.8 M868.2 1008.0 L864.0 1009.8 M1066.5 1008.0 L1068.6 1032.0 M1614.1 1008.0 L1617.5 1032.0 M0.0 1054.1 L24.0 1051.4 M24.0 1051.4 L48.0 1047.7 M48.0 1047.7 L72.0 1033.9 M73.6 1032.0 L72.0 1033.9 M419.4 1056.0 L432.0 1045.1 M449.4 1032.0 L432.0 1045.1 M526.3 1032.0 L528.0 1033.5 M528.0 1033.5 L544.7 1056.0 M837.6 1056.0 L840.0 1045.2 M844.6 1032.0 L840.0 1045.2 M1068.6 1032.0 L1069.9 1056.0 M1617.5 1032.0 L1614.2 1056.0 M393.2 1080.0 L408.0 1066.4 M419.4 1056.0 L408.0 1066.4 M544.7 1056.0 L552.0 1065.6 M552.0 1065.6 L563.7 1080.0 M837.6 1056.0 L837.2 1080.0 M1069.9 1056.0 L1070.4 1080.0 M1603.5 1080.0 L1608.0 1072.4 M1614.2 1056.0 L1608.0 1072.4 M367.6 1104.0 L384.0 1089.3 M393.2 1080.0 L384.0 1089.3 M563.7 1080.0 L576.0 1094.7 M576.0 1094.7 L585.8 1104.0 M837.2 1080.0 L839.9 1104.0 M1070.4 1080.0 L1070.1 1104.0 M1578.1 1104.0 L1584.0 1101.7 M1603.5 1080.0 L1584.0 1101.7" stroke="#d14e24"/>
    <path d="M212.4 0.0 L210.2 24.0 M767.5 0.0 L768.0 1.0 M768.0 1.0 L778.4 24.0 M964.0 0.0 L984.0 20.9 M984.0 20.9 L993.0 24.0 M1052.9 0.0 L1041.4 24.0 M1099.1 24.0 L1104.0 21.1 M1123.2 0.0 L1104.0 21.1 M1217.8 0.0 L1203.4 24.0 M1571.5 0.0 L1584.0 9.8 M1584.0 9.8 L1606.8 24.0 M1702.9 0.0 L1704.0 1.4 M1704.0 1.4 L1724.6 24.0 M1847.7 0.0 L1837.4 24.0 M210.2 24.0 L195.4 48.0 M778.4 24.0 L791.8 48.0 M993.0 24.0 L1008.0 29.0 M1008.0 29.0 L1032.0 27.9 M1041.4 24.0 L1032.0 27.9 M1078.9 48.0 L1080.0 46.5 M1099.1 24.0 L1080.0 46.5 M1194.9 48.0 L1200.0 33.9 M1203.4 24.0 L1200.0 33.9 M1606.8 24.0 L1608.0 24.7 M1608.0 24.7 L1632.0 39.9 M1632.0 39.9 L1640.9 48.0 M1724.6 24.0 L1728.0 26.1 M1728.0 26.1 L1752.0 38.2 M1752.0 38.2 L1776.0 45.1 M1776.0 45.1 L1800.0 46.1 M1800.0 46.1 L1824.0 36.9 M1837.4 24.0 L1824.0 36.9 M170.0 72.0 L192.0 51.4 M195.4 48.0 L192.0 51.4 M791.8 48.0 L792.0 48.2 M792.0 48.2 L816.0 69.7 M816.0 69.7 L819.0 72.0 M1078.9 48.0 L1078.9 72.0 M1194.9 48.0 L1199.5 72.0 M1640.9 48.0 L1653.2 72.0 M155.0 96.0 L168.0 74.3 M170.0 72.0 L168.0 74.3 M819.0 72.0 L840.0 85.2 M840.0 85.2 L853.5 96.0 M1078.9 72.0 L1080.0 73.8 M1080.0 73.8 L1090.5 96.0 M1199.5 72.0 L1200.0 72.6 M1200.0 72.6 L1219.5 96.0 M1653.2 72.0 L1652.4 96.0 M155.0 96.0 L148.8 120.0 M853.5 96.0 L864.0 107.7 M864.0 107.7 L872.0 120.0 M1090.5 96.0 L1104.0 110.1 M1104.0 110.1 L1114.1 120.0 M1219.5 96.0 L1224.0 99.3 M1224.0 99.3 L1248.0 113.2 M1248.0 113.2 L1260.8 120.0 M1652.4 96.0 L1643.6 120.0 M148.8 120.0 L148.8 144.0 M872.0 120.0 L877.0 144.0 M1114.1 120.0 L1128.0 129.6 M1128.0 129.6 L1145.3 144.0 M1260.8 120.0 L1272.0 125.9 M1272.0 125.9 L1296.0 138.6 M1296.0 138.6 L1306.4 144.0 M1387.7 144.0 L1392.0 141.9 M1392.0 141.9 L1416.0 130.6 M1416.0 130.6 L1440.0 127.0 M1440.0 127.0 L1464.0 133.6 M1464.0 133.6 L1477.2 144.0 M1643.6 120.0 L1633.8 144.0 M148.8 144.0 L152.7 168.0 M877.0 144.0 L874.1 168.0 M1145.3 144.0 L1152.0 150.0 M1152.0 150.0 L1167.2 168.0 M1306.4 144.0 L1320.0 148.1 M1320.0 148.1 L1344.0 151.4 M1344.0 151.4 L1368.0 149.4 M1387.7 144.0 L1368.0 149.4 M1477.2 144.0 L1488.0 152.5 M1488.0 152.5 L1498.9 168.0 M1627.5 168.0 L1632.0 151.2 M1633.8 144.0 L1632.0 151.2 M152.7 168.0 L157.1 192.0 M874.1 168.0 L866.0 192.0 M1167.2 168.0 L1176.0 185.8 M1176.0 185.8 L1178.8 192.0 M1498.9 168.0 L1512.0 188.9 M1512.0 188.9 L1513.6 192.0 M1627.5 168.0 L1627.0 192.0 M157.1 192.0 L158.3 216.0 M855.1 216.0 L864.0 196.2 M866.0 192.0 L864.0 196.2 M1178.8 192.0 L1186.7 216.0 M1513.6 192.0 L1527.8 216.0 M1627.0 192.0 L1630.9 216.0 M1797.8 216.0 L1800.0 213.6 M1800.0 213.6 L1824.0 196.4 M1824.0 196.4 L1848.0 192.7 M1848.0 192.7 L1872.0 201.1 M1872.0 201.1 L1896.0 214.5 M1896.0 214.5 L1899.0 216.0 M158.3 216.0 L152.3 240.0 M855.1 216.0 L843.2 240.0 M1186.7 216.0 L1193.0 240.0 M1527.8 216.0 L1536.0 227.2 M1536.0 227.2 L1546.1 240.0 M1630.9 216.0 L1632.0 221.4 M1632.0 221.4 L1635.5 240.0 M1797.8 216.0 L1777.7 240.0 M1899.0 216.0 L1920.0 224.4 M1920.0 224.4 L1944.0 227.0 M136.9 264.0 L144.0 253.2 M152.3 240.0 L144.0 253.2 M452.2 264.0 L456.0 260.5 M456.0 260.5 L480.0 250.9 M480.0 250.9 L504.0 250.2 M504.0 250.2 L528.0 255.9 M528.0 255.9 L545.0 264.0 M831.4 264.0 L840.0 246.9 M843.2 240.0 L840.0 246.9 M1193.0 240.0 L1200.0 262.4 M1200.0 262.4 L1200.6 264.0 M1546.1 240.0 L1560.0 254.3 M1560.0 254.3 L1572.0 264.0 M1635.5 240.0 L1636.0 264.0 M1759.9 264.0 L1776.0 242.3 M1777.7 240.0 L1776.0 242.3 M118.3 288.0 L120.0 285.3 M136.9 264.0 L120.0 285.3 M426.4 288.0 L432.0 280.5 M452.2 264.0 L432.0 280.5 M545.0 264.0 L552.0 266.7 M552.0 266.7 L576.0 279.2 M576.0 279.2 L591.2 288.0 M831.4 264.0 L822.0 288.0 M1200.6 264.0 L1212.5 288.0 M1572.0 264.0 L1584.0 273.0 M1584.0 273.0 L1608.0 282.9 M1608.0 282.9 L1632.0 272.7 M1636.0 264.0 L1632.0 272.7 M1744.8 288.0 L1752.0 277.3 M1759.9 264.0 L1752.0 277.3 M118.3 288.0 L107.1 312.0 M403.8 312.0 L408.0 306.6 M426.4 288.0 L408.0 306.6 M591.2 288.0 L600.0 292.7 M600.0 292.7 L624.0 306.9 M624.0 306.9 L631.8 312.0 M815.5 312.0 L816.0 310.4 M822.0 288.0 L816.0 310.4 M1212.5 288.0 L1224.0 302.3 M1224.0 302.3 L1230.9 312.0 M1744.8 288.0 L1738.1 312.0 M107.1 312.0 L104.2 336.0 M380.6 336.0 L384.0 332.1 M403.8 312.0 L384.0 332.1 M631.8 312.0 L648.0 324.8 M648.0 324.8 L660.5 336.0 M815.5 312.0 L811.5 336.0 M1230.9 312.0 L1248.0 333.1 M1248.0 333.1 L1249.9 336.0 M1738.1 312.0 L1739.5 336.0 M104.2 336.0 L107.5 360.0 M356.6 360.0 L360.0 356.6 M380.6 336.0 L360.0 356.6 M660.5 336.0 L672.0 354.1 M672.0 354.1 L675.6 360.0 M811.5 336.0 L808.6 360.0 M1249.9 336.0 L1266.2 360.0 M1739.5 336.0 L1743.1 360.0 M107.5 360.0 L113.9 384.0 M332.1 384.0 L336.0 380.6 M356.6 360.0 L336.0 380.6 M675.6 360.0 L681.8 384.0 M808.6 360.0 L802.6 384.0 M1266.2 360.0 L1272.0 367.2 M1272.0 367.2 L1287.1 384.0 M1743.1 360.0 L1743.5 384.0 M113.9 384.0 L120.0 404.6 M120.0 404.6 L121.1 408.0 M307.5 408.0 L312.0 404.1 M332.1 384.0 L312.0 404.1 M681.8 384.0 L683.1 408.0 M790.4 408.0 L792.0 405.2 M802.6 384.0 L792.0 405.2 M939.0 408.0 L960.0 392.2 M960.0 392.2 L984.0 392.5 M984.0 392.5 L1008.0 403.2 M1008.0 403.2 L1015.0 408.0 M1287.1 384.0 L1296.0 391.6 M1296.0 391.6 L1320.0 403.7 M1320.0 403.7 L1344.0 407.5 M1344.0 407.5 L1368.0 406.3 M1368.0 406.3 L1392.0 404.2 M1392.0 404.2 L1416.0 405.2 M1416.0 405.2 L1426.8 408.0 M1743.5 384.0 L1737.0 408.0 M121.1 408.0 L128.9 432.0 M287.3 432.0 L288.0 431.3 M307.5 408.0 L288.0 431.3 M683.1 408.0 L683.1 432.0 M790.4 408.0 L773.5 432.0 M933.7 432.0 L936.0 417.2 M939.0 408.0 L936.0 417.2 M1015.0 408.0 L1032.0 420.2 M1032.0 420.2 L1048.6 432.0 M1426.8 408.0 L1440.0 412.1 M1440.0 412.1 L1464.0 426.4 M1464.0 426.4 L1471.4 432.0 M1721.6 432.0 L1728.0 422.4 M1737.0 408.0 L1728.0 422.4 M128.9 432.0 L137.4 456.0 M287.3 432.0 L274.0 456.0 M683.1 432.0 L688.9 456.0 M750.5 456.0 L768.0 439.2 M773.5 432.0 L768.0 439.2 M933.7 432.0 L934.8 456.0 M1048.6 432.0 L1056.0 437.0 M1056.0 437.0 L1080.0 449.5 M1080.0 449.5 L1094.7 456.0 M1471.4 432.0 L1487.7 456.0 M1699.1 456.0 L1704.0 450.9 M1721.6 432.0 L1704.0 450.9 M137.4 456.0 L144.0 471.2 M144.0 471.2 L149.8 480.0 M274.0 456.0 L267.3 480.0 M688.9 456.0 L696.0 462.9 M696.0 462.9 L720.0 469.1 M720.0 469.1 L744.0 461.6 M750.5 456.0 L744.0 461.6 M934.8 456.0 L936.0 463.6 M936.0 463.6 L939.1 480.0 M1094.7 456.0 L1104.0 462.6 M1104.0 462.6 L1118.9 480.0 M1487.7 456.0 L1488.0 461.5 M1488.0 461.5 L1489.0 480.0 M1676.8 480.0 L1680.0 476.4 M1699.1 456.0 L1680.0 476.4 M149.8 480.0 L168.0 502.9 M168.0 502.9 L169.7 504.0 M260.7 504.0 L264.0 496.0 M267.3 480.0 L264.0 496.0 M939.1 480.0 L947.5 504.0 M1118.9 480.0 L1124.1 504.0 M1480.7 504.0 L1488.0 482.8 M1489.0 480.0 L1488.0 482.8 M1676.8 480.0 L1661.6 504.0 M169.7 504.0 L192.0 518.2 M192.0 518.2 L216.0 524.6 M216.0 524.6 L240.0 522.3 M260.7 504.0 L240.0 522.3 M947.5 504.0 L960.0 527.1 M960.0 527.1 L960.8 528.0 M1124.1 504.0 L1126.8 528.0 M1480.7 504.0 L1468.0 528.0 M1654.7 528.0 L1656.0 523.5 M1661.6 504.0 L1656.0 523.5 M960.8 528.0 L984.0 551.7 M984.0 551.7 L984.3 552.0 M1126.8 528.0 L1128.0 534.6 M1128.0 534.6 L1131.4 552.0 M1456.0 552.0 L1464.0 535.7 M1468.0 528.0 L1464.0 535.7 M1654.7 528.0 L1655.6 552.0 M984.3 552.0 L1006.5 576.0 M1131.4 552.0 L1142.4 576.0 M1456.0 552.0 L1449.6 576.0 M1655.6 552.0 L1656.0 553.4 M1656.0 553.4 L1664.5 576.0 M1006.5 576.0 L1008.0 579.2 M1008.0 579.2 L1017.9 600.0 M1142.4 576.0 L1152.0 585.4 M1152.0 585.4 L1176.0 596.8 M1176.0 596.8 L1200.0 599.5 M1200.0 599.5 L1224.0 599.8 M1224.0 599.8 L1225.4 600.0 M1449.6 576.0 L1450.4 600.0 M1664.5 576.0 L1680.0 594.3 M1680.0 594.3 L1685.9 600.0 M935.9 624.0 L936.0 624.0 M936.0 624.0 L936.5 624.0 M1017.9 600.0 L1009.8 624.0 M1225.4 600.0 L1248.0 604.1 M1248.0 604.1 L1271.6 624.0 M1450.4 600.0 L1457.2 624.0 M1685.9 600.0 L1704.0 615.3 M1704.0 615.3 L1711.5 624.0 M880.6 648.0 L888.0 640.6 M888.0 640.6 L912.0 627.8 M935.9 624.0 L912.0 627.8 M936.5 624.0 L960.0 625.3 M960.0 625.3 L984.0 627.7 M984.0 627.7 L1008.0 625.0 M1009.8 624.0 L1008.0 625.0 M1271.6 624.0 L1272.0 626.8 M1272.0 626.8 L1273.5 648.0 M1457.2 624.0 L1464.0 642.3 M1464.0 642.3 L1468.9 648.0 M1536.7 648.0 L1560.0 642.2 M1560.0 642.2 L1584.0 640.2 M1584.0 640.2 L1608.0 645.1 M1608.0 645.1 L1612.9 648.0 M1711.5 624.0 L1726.6 648.0 M861.5 672.0 L864.0 668.1 M880.6 648.0 L864.0 668.1 M1264.5 672.0 L1272.0 652.2 M1273.5 648.0 L1272.0 652.2 M1468.9 648.0 L1486.8 672.0 M1488.9 672.0 L1512.0 660.6 M1512.0 660.6 L1536.0 648.2 M1536.7 648.0 L1536.0 648.2 M1612.9 648.0 L1632.0 664.8 M1632.0 664.8 L1637.4 672.0 M1726.6 648.0 L1728.0 651.7 M1728.0 651.7 L1732.7 672.0 M861.5 672.0 L846.8 696.0 M1264.5 672.0 L1253.9 696.0 M1460.9 696.0 L1464.0 689.0 M1486.8 672.0 L1464.0 689.0 M1488.9 672.0 L1495.1 696.0 M1637.4 672.0 L1651.4 696.0 M1732.7 672.0 L1734.3 696.0 M376.6 720.0 L384.0 714.3 M384.0 714.3 L408.0 702.0 M408.0 702.0 L432.0 698.2 M432.0 698.2 L456.0 705.6 M456.0 705.6 L475.4 720.0 M823.1 720.0 L840.0 706.4 M846.8 696.0 L840.0 706.4 M1253.9 696.0 L1248.0 720.0 M1436.9 720.0 L1440.0 715.3 M1460.9 696.0 L1440.0 715.3 M1495.1 696.0 L1512.0 717.3 M1512.0 717.3 L1513.1 720.0 M1651.4 696.0 L1656.0 703.9 M1656.0 703.9 L1668.1 720.0 M1734.3 696.0 L1728.9 720.0 M342.3 744.0 L360.0 731.4 M376.6 720.0 L360.0 731.4 M475.4 720.0 L480.0 725.7 M480.0 725.7 L492.3 744.0 M613.5 744.0 L624.0 737.2 M624.0 737.2 L648.0 729.7 M648.0 729.7 L672.0 727.5 M672.0 727.5 L696.0 727.0 M696.0 727.0 L720.0 726.8 M720.0 726.8 L744.0 727.0 M744.0 727.0 L768.0 727.4 M768.0 727.4 L792.0 727.7 M792.0 727.7 L816.0 724.2 M823.1 720.0 L816.0 724.2 M1247.8 744.0 L1248.0 721.1 M1248.0 720.0 L1248.0 721.1 M1436.9 720.0 L1418.4 744.0 M1513.1 720.0 L1526.4 744.0 M1668.1 720.0 L1680.0 731.4 M1680.0 731.4 L1704.0 736.3 M1704.0 736.3 L1728.0 721.4 M1728.9 720.0 L1728.0 721.4 M304.2 768.0 L312.0 763.2 M312.0 763.2 L336.0 748.2 M342.3 744.0 L336.0 748.2 M492.3 744.0 L503.1 768.0 M592.2 768.0 L600.0 758.4 M613.5 744.0 L600.0 758.4 M1247.8 744.0 L1248.0 745.1 M1248.0 745.1 L1252.7 768.0 M1403.6 768.0 L1416.0 747.3 M1418.4 744.0 L1416.0 747.3 M1526.4 744.0 L1536.0 766.3 M1536.0 766.3 L1536.7 768.0 M273.6 792.0 L288.0 779.2 M304.2 768.0 L288.0 779.2 M503.1 768.0 L504.0 770.0 M504.0 770.0 L517.6 792.0 M592.2 768.0 L578.3 792.0 M860.6 792.0 L864.0 789.3 M864.0 789.3 L888.0 787.6 M888.0 787.6 L904.6 792.0 M1252.7 768.0 L1261.8 792.0 M1389.6 792.0 L1392.0 788.0 M1403.6 768.0 L1392.0 788.0 M1536.7 768.0 L1542.4 792.0 M254.9 816.0 L264.0 802.5 M273.6 792.0 L264.0 802.5 M517.6 792.0 L528.0 807.3 M528.0 807.3 L551.1 816.0 M552.5 816.0 L576.0 796.8 M578.3 792.0 L576.0 796.8 M860.6 792.0 L840.1 816.0 M904.6 792.0 L912.0 794.4 M912.0 794.4 L936.0 805.9 M936.0 805.9 L958.8 816.0 M992.3 816.0 L1008.0 810.6 M1008.0 810.6 L1032.0 799.8 M1032.0 799.8 L1056.0 795.6 M1056.0 795.6 L1080.0 800.4 M1080.0 800.4 L1104.0 813.0 M1104.0 813.0 L1107.9 816.0 M1261.8 792.0 L1272.0 812.5 M1272.0 812.5 L1274.4 816.0 M1389.6 792.0 L1373.7 816.0 M1542.4 792.0 L1542.5 816.0 M254.9 816.0 L240.8 840.0 M551.1 816.0 L552.0 816.3 M552.5 816.0 L552.0 816.3 M830.4 840.0 L840.0 816.2 M840.1 816.0 L840.0 816.2 M958.8 816.0 L960.0 817.4 M960.0 817.4 L984.0 822.7 M992.3 816.0 L984.0 822.7 M1107.9 816.0 L1128.0 831.9 M1128.0 831.9 L1136.6 840.0 M1274.4 816.0 L1292.4 840.0 M1351.5 840.0 L1368.0 824.1 M1373.7 816.0 L1368.0 824.1 M1542.5 816.0 L1540.3 840.0 M228.6 864.0 L240.0 841.5 M240.8 840.0 L240.0 841.5 M830.4 840.0 L821.9 864.0 M1136.6 840.0 L1152.0 858.0 M1152.0 858.0 L1157.2 864.0 M1292.4 840.0 L1296.0 845.3 M1296.0 845.3 L1320.0 858.0 M1320.0 858.0 L1344.0 848.8 M1351.5 840.0 L1344.0 848.8 M1540.3 840.0 L1539.6 864.0 M228.6 864.0 L216.3 888.0 M815.0 888.0 L816.0 885.3 M821.9 864.0 L816.0 885.3 M941.5 888.0 L960.0 872.9 M960.0 872.9 L984.0 880.8 M984.0 880.8 L986.8 888.0 M1157.2 864.0 L1169.6 888.0 M1539.6 864.0 L1543.2 888.0 M201.4 912.0 L216.0 888.5 M216.3 888.0 L216.0 888.5 M815.0 888.0 L810.3 912.0 M917.7 912.0 L936.0 892.3 M941.5 888.0 L936.0 892.3 M986.8 888.0 L992.9 912.0 M1169.6 888.0 L1171.9 912.0 M1543.2 888.0 L1551.7 912.0 M181.8 936.0 L192.0 925.4 M201.4 912.0 L192.0 925.4 M810.3 912.0 L806.4 936.0 M905.0 936.0 L912.0 923.6 M917.7 912.0 L912.0 923.6 M992.9 912.0 L987.3 936.0 M1171.9 912.0 L1159.4 936.0 M1551.7 912.0 L1560.0 928.7 M1560.0 928.7 L1563.3 936.0 M156.6 960.0 L168.0 950.6 M181.8 936.0 L168.0 950.6 M806.4 936.0 L803.0 960.0 M905.0 936.0 L912.0 947.1 M912.0 947.1 L936.0 959.5 M936.0 959.5 L960.0 952.8 M960.0 952.8 L984.0 939.1 M987.3 936.0 L984.0 939.1 M1128.3 960.0 L1152.0 941.8 M1159.4 936.0 L1152.0 941.8 M1563.3 936.0 L1575.2 960.0 M135.2 984.0 L144.0 974.0 M156.6 960.0 L144.0 974.0 M803.0 960.0 L803.1 984.0 M1101.4 984.0 L1104.0 981.0 M1104.0 981.0 L1128.0 960.2 M1128.3 960.0 L1128.0 960.2 M1575.2 960.0 L1584.0 979.1 M1584.0 979.1 L1586.4 984.0 M135.2 984.0 L122.8 1008.0 M455.1 1008.0 L456.0 1007.1 M456.0 1007.1 L480.0 991.9 M480.0 991.9 L504.0 988.7 M504.0 988.7 L528.0 1003.0 M528.0 1003.0 L531.8 1008.0 M803.1 984.0 L805.0 1008.0 M1101.4 984.0 L1091.1 1008.0 M1586.4 984.0 L1594.7 1008.0 M114.5 1032.0 L120.0 1016.8 M122.8 1008.0 L120.0 1016.8 M426.6 1032.0 L432.0 1027.0 M455.1 1008.0 L432.0 1027.0 M531.8 1008.0 L549.1 1032.0 M805.0 1008.0 L807.8 1032.0 M1091.1 1008.0 L1088.4 1032.0 M1594.7 1008.0 L1597.1 1032.0 M114.5 1032.0 L105.3 1056.0 M399.2 1056.0 L408.0 1048.3 M426.6 1032.0 L408.0 1048.3 M549.1 1032.0 L552.0 1035.9 M552.0 1035.9 L566.4 1056.0 M807.8 1032.0 L811.7 1056.0 M1088.4 1032.0 L1087.9 1056.0 M1597.1 1032.0 L1590.4 1056.0 M0.0 1072.0 L24.0 1072.9 M24.0 1072.9 L48.0 1077.3 M48.0 1077.3 L64.1 1080.0 M79.8 1080.0 L96.0 1072.7 M105.3 1056.0 L96.0 1072.7 M371.9 1080.0 L384.0 1070.0 M399.2 1056.0 L384.0 1070.0 M566.4 1056.0 L576.0 1067.6 M576.0 1067.6 L589.0 1080.0 M811.7 1056.0 L816.0 1075.0 M816.0 1075.0 L816.8 1080.0 M1087.9 1056.0 L1087.7 1080.0 M1563.2 1080.0 L1584.0 1065.4 M1590.4 1056.0 L1584.0 1065.4 M64.1 1080.0 L72.0 1081.9 M79.8 1080.0 L72.0 1081.9 M343.8 1104.0 L360.0 1090.8 M371.9 1080.0 L360.0 1090.8 M589.0 1080.0 L600.0 1090.5 M600.0 1090.5 L616.5 1104.0 M816.8 1080.0 L822.0 1104.0 M1087.7 1080.0 L1087.8 1104.0 M1468.8 1104.0 L1488.0 1096.6 M1488.0 1096.6 L1512.0 1091.9 M1512.0 1091.9 L1536.0 1088.0 M1536.0 1088.0 L1560.0 1081.7 M1563.2 1080.0 L1560.0 1081.7" stroke="#ffb45b"/>
    <path d="M240.3 0.0 L243.6 24.0 M580.5 0.0 L600.0 9.2 M600.0 9.2 L624.0 13.5 M624.0 13.5 L648.0 10.7 M648.0 10.7 L672.0 17.9 M672.0 17.9 L673.3 24.0 M1891.2 0.0 L1884.9 24.0 M243.6 24.0 L240.5 48.0 M603.5 48.0 L624.0 28.4 M624.0 28.4 L648.0 25.1 M648.0 25.1 L672.0 24.2 M673.3 24.0 L672.0 24.2 M1868.0 48.0 L1872.0 42.0 M1884.9 24.0 L1872.0 42.0 M224.2 72.0 L240.0 48.9 M240.5 48.0 L240.0 48.9 M592.5 72.0 L600.0 51.4 M603.5 48.0 L600.0 51.4 M1705.1 72.0 L1728.0 66.4 M1728.0 66.4 L1752.0 70.1 M1752.0 70.1 L1760.2 72.0 M1838.5 72.0 L1848.0 66.9 M1868.0 48.0 L1848.0 66.9 M199.3 96.0 L216.0 79.7 M224.2 72.0 L216.0 79.7 M592.5 72.0 L587.5 96.0 M766.6 96.0 L768.0 95.2 M768.0 95.2 L792.0 94.3 M792.0 94.3 L796.5 96.0 M1689.0 96.0 L1704.0 72.4 M1705.1 72.0 L1704.0 72.4 M1760.2 72.0 L1776.0 76.2 M1776.0 76.2 L1800.0 81.1 M1800.0 81.1 L1824.0 79.8 M1838.5 72.0 L1824.0 79.8 M185.7 120.0 L192.0 107.0 M199.3 96.0 L192.0 107.0 M587.5 96.0 L589.1 120.0 M729.4 120.0 L744.0 106.6 M766.6 96.0 L744.0 106.6 M796.5 96.0 L816.0 101.8 M816.0 101.8 L840.0 118.3 M840.0 118.3 L841.6 120.0 M1676.5 120.0 L1680.0 112.1 M1689.0 96.0 L1680.0 112.1 M185.7 120.0 L183.1 144.0 M589.1 120.0 L600.0 135.5 M600.0 135.5 L618.0 144.0 M686.9 144.0 L696.0 141.3 M696.0 141.3 L720.0 126.6 M729.4 120.0 L720.0 126.6 M841.6 120.0 L853.3 144.0 M1676.5 120.0 L1663.9 144.0 M183.1 144.0 L186.2 168.0 M618.0 144.0 L624.0 145.4 M624.0 145.4 L648.0 147.1 M648.0 147.1 L672.0 146.9 M686.9 144.0 L672.0 146.9 M853.3 144.0 L853.9 168.0 M1654.9 168.0 L1656.0 164.6 M1663.9 144.0 L1656.0 164.6 M1807.7 168.0 L1824.0 158.0 M1824.0 158.0 L1848.0 158.2 M1848.0 158.2 L1865.3 168.0 M186.2 168.0 L190.7 192.0 M853.9 168.0 L847.8 192.0 M1242.9 192.0 L1248.0 189.2 M1248.0 189.2 L1272.0 188.8 M1272.0 188.8 L1296.0 191.8 M1296.0 191.8 L1297.5 192.0 M1383.8 192.0 L1392.0 190.3 M1392.0 190.3 L1416.0 184.5 M1416.0 184.5 L1440.0 182.2 M1440.0 182.2 L1464.0 189.0 M1464.0 189.0 L1467.7 192.0 M1654.9 168.0 L1653.6 192.0 M1780.6 192.0 L1800.0 172.3 M1807.7 168.0 L1800.0 172.3 M1865.3 168.0 L1872.0 170.8 M1872.0 170.8 L1896.0 187.4 M1896.0 187.4 L1903.3 192.0 M190.7 192.0 L192.0 206.6 M192.0 206.6 L192.9 216.0 M837.7 216.0 L840.0 210.8 M847.8 192.0 L840.0 210.8 M1242.9 192.0 L1229.8 216.0 M1297.5 192.0 L1320.0 194.3 M1320.0 194.3 L1344.0 195.5 M1344.0 195.5 L1368.0 194.5 M1383.8 192.0 L1368.0 194.5 M1467.7 192.0 L1488.0 207.8 M1488.0 207.8 L1494.3 216.0 M1653.6 192.0 L1656.0 204.6 M1656.0 204.6 L1658.8 216.0 M1761.2 216.0 L1776.0 197.1 M1780.6 192.0 L1776.0 197.1 M1903.3 192.0 L1920.0 200.7 M1920.0 200.7 L1944.0 204.2 M189.0 240.0 L192.0 221.5 M192.9 216.0 L192.0 221.5 M431.3 240.0 L432.0 238.7 M432.0 238.7 L456.0 220.5 M456.0 220.5 L480.0 216.1 M480.0 216.1 L504.0 216.6 M504.0 216.6 L528.0 221.8 M528.0 221.8 L552.0 234.8 M552.0 234.8 L557.6 240.0 M837.7 216.0 L825.1 240.0 M1229.8 216.0 L1232.1 240.0 M1494.3 216.0 L1512.0 236.1 M1512.0 236.1 L1515.0 240.0 M1658.8 216.0 L1669.2 240.0 M1741.3 240.0 L1752.0 228.2 M1761.2 216.0 L1752.0 228.2 M189.0 240.0 L176.0 264.0 M431.3 240.0 L417.5 264.0 M557.6 240.0 L576.0 252.4 M576.0 252.4 L590.9 264.0 M812.2 264.0 L816.0 257.9 M825.1 240.0 L816.0 257.9 M1232.1 240.0 L1240.3 264.0 M1515.0 240.0 L1536.0 262.6 M1536.0 262.6 L1537.4 264.0 M1669.2 240.0 L1680.0 259.8 M1680.0 259.8 L1689.5 264.0 M1711.9 264.0 L1728.0 255.0 M1741.3 240.0 L1728.0 255.0 M154.3 288.0 L168.0 272.9 M176.0 264.0 L168.0 272.9 M402.6 288.0 L408.0 277.4 M417.5 264.0 L408.0 277.4 M590.9 264.0 L600.0 269.3 M600.0 269.3 L624.0 283.7 M624.0 283.7 L631.2 288.0 M812.2 264.0 L799.6 288.0 M1240.3 264.0 L1248.0 277.5 M1248.0 277.5 L1253.3 288.0 M1537.4 264.0 L1560.0 285.5 M1560.0 285.5 L1563.2 288.0 M1689.5 264.0 L1704.0 270.9 M1711.9 264.0 L1704.0 270.9 M135.5 312.0 L144.0 299.6 M154.3 288.0 L144.0 299.6 M402.6 288.0 L384.5 312.0 M631.2 288.0 L648.0 298.2 M648.0 298.2 L669.3 312.0 M789.4 312.0 L792.0 307.6 M799.6 288.0 L792.0 307.6 M1253.3 288.0 L1267.8 312.0 M1563.2 288.0 L1584.0 305.4 M1584.0 305.4 L1595.8 312.0 M135.5 312.0 L127.6 336.0 M363.3 336.0 L384.0 312.5 M384.5 312.0 L384.0 312.5 M669.3 312.0 L672.0 314.4 M672.0 314.4 L695.1 336.0 M789.4 312.0 L780.0 336.0 M1267.8 312.0 L1272.0 318.3 M1272.0 318.3 L1283.2 336.0 M1595.8 312.0 L1608.0 319.3 M1608.0 319.3 L1632.0 324.8 M1632.0 324.8 L1656.0 324.3 M1656.0 324.3 L1680.0 324.3 M1680.0 324.3 L1692.8 336.0 M127.6 336.0 L128.1 360.0 M339.3 360.0 L360.0 339.3 M363.3 336.0 L360.0 339.3 M695.1 336.0 L696.0 337.8 M696.0 337.8 L710.5 360.0 M780.0 336.0 L772.6 360.0 M1283.2 336.0 L1296.0 352.7 M1296.0 352.7 L1303.2 360.0 M1692.8 336.0 L1704.0 350.2 M1704.0 350.2 L1707.5 360.0 M128.1 360.0 L133.2 384.0 M312.6 384.0 L336.0 363.3 M339.3 360.0 L336.0 363.3 M710.5 360.0 L717.1 384.0 M760.3 384.0 L768.0 373.1 M772.6 360.0 L768.0 373.1 M1303.2 360.0 L1320.0 373.1 M1320.0 373.1 L1344.0 382.1 M1344.0 382.1 L1368.0 383.7 M1368.0 383.7 L1392.0 383.6 M1392.0 383.6 L1395.5 384.0 M1707.5 360.0 L1710.5 384.0 M133.2 384.0 L140.2 408.0 M284.2 408.0 L288.0 405.0 M288.0 405.0 L312.0 384.6 M312.6 384.0 L312.0 384.6 M717.1 384.0 L720.0 395.5 M720.0 395.5 L744.0 404.9 M760.3 384.0 L744.0 404.9 M1395.5 384.0 L1416.0 386.0 M1416.0 386.0 L1440.0 392.4 M1440.0 392.4 L1464.0 403.3 M1464.0 403.3 L1472.4 408.0 M1710.5 384.0 L1704.2 408.0 M140.2 408.0 L144.0 419.3 M144.0 419.3 L150.0 432.0 M260.9 432.0 L264.0 429.3 M284.2 408.0 L264.0 429.3 M1472.4 408.0 L1488.0 419.4 M1488.0 419.4 L1504.2 432.0 M1686.7 432.0 L1704.0 408.4 M1704.2 408.0 L1704.0 408.4 M150.0 432.0 L164.0 456.0 M260.9 432.0 L242.0 456.0 M978.6 456.0 L984.0 449.9 M984.0 449.9 L1008.0 453.7 M1008.0 453.7 L1011.9 456.0 M1504.2 432.0 L1512.0 444.5 M1512.0 444.5 L1519.7 456.0 M1663.4 456.0 L1680.0 439.0 M1686.7 432.0 L1680.0 439.0 M164.0 456.0 L168.0 461.7 M168.0 461.7 L192.0 477.7 M192.0 477.7 L216.0 478.0 M216.0 478.0 L240.0 459.3 M242.0 456.0 L240.0 459.3 M978.6 456.0 L976.7 480.0 M1011.9 456.0 L1032.0 467.9 M1032.0 467.9 L1056.0 479.9 M1056.0 479.9 L1056.2 480.0 M1519.7 456.0 L1521.7 480.0 M1642.2 480.0 L1656.0 464.4 M1663.4 456.0 L1656.0 464.4 M976.7 480.0 L984.0 495.2 M984.0 495.2 L990.4 504.0 M1056.2 480.0 L1080.0 502.4 M1080.0 502.4 L1081.1 504.0 M1521.7 480.0 L1513.8 504.0 M1628.5 504.0 L1632.0 498.4 M1642.2 480.0 L1632.0 498.4 M990.4 504.0 L1008.0 519.7 M1008.0 519.7 L1016.3 528.0 M1081.1 504.0 L1086.7 528.0 M1502.1 528.0 L1512.0 507.3 M1513.8 504.0 L1512.0 507.3 M1628.5 504.0 L1621.5 528.0 M1016.3 528.0 L1032.0 542.1 M1032.0 542.1 L1046.1 552.0 M1086.7 528.0 L1083.5 552.0 M1502.1 528.0 L1489.7 552.0 M1621.5 528.0 L1618.9 552.0 M1046.1 552.0 L1056.0 560.0 M1056.0 560.0 L1080.0 559.6 M1083.5 552.0 L1080.0 559.6 M1484.1 576.0 L1488.0 558.3 M1489.7 552.0 L1488.0 558.3 M1618.9 552.0 L1615.0 576.0 M1484.1 576.0 L1488.0 594.9 M1488.0 594.9 L1490.3 600.0 M1589.1 600.0 L1608.0 587.1 M1615.0 576.0 L1608.0 587.1 M1490.3 600.0 L1512.0 612.8 M1512.0 612.8 L1536.0 612.4 M1536.0 612.4 L1560.0 607.7 M1560.0 607.7 L1584.0 601.6 M1589.1 600.0 L1584.0 601.6 M1091.9 648.0 L1104.0 635.8 M1104.0 635.8 L1128.0 631.6 M1128.0 631.6 L1152.0 635.4 M1152.0 635.4 L1176.0 639.8 M1176.0 639.8 L1200.0 643.3 M1200.0 643.3 L1215.1 648.0 M898.3 672.0 L912.0 662.8 M912.0 662.8 L936.0 658.5 M936.0 658.5 L960.0 661.9 M960.0 661.9 L984.0 669.5 M984.0 669.5 L991.7 672.0 M1066.2 672.0 L1080.0 659.1 M1091.9 648.0 L1080.0 659.1 M1215.1 648.0 L1224.0 662.6 M1224.0 662.6 L1225.5 672.0 M879.2 696.0 L888.0 682.2 M898.3 672.0 L888.0 682.2 M991.7 672.0 L1008.0 679.2 M1008.0 679.2 L1032.0 685.1 M1032.0 685.1 L1056.0 680.0 M1066.2 672.0 L1056.0 680.0 M1223.4 696.0 L1224.0 689.6 M1225.5 672.0 L1224.0 689.6 M879.2 696.0 L870.5 720.0 M1223.4 696.0 L1222.9 720.0 M376.9 744.0 L384.0 739.4 M384.0 739.4 L408.0 729.2 M408.0 729.2 L432.0 728.9 M432.0 728.9 L455.2 744.0 M719.8 744.0 L720.0 744.0 M720.0 744.0 L720.3 744.0 M870.5 720.0 L876.4 744.0 M1222.9 720.0 L1224.0 727.4 M1224.0 727.4 L1225.5 744.0 M1456.7 744.0 L1464.0 738.8 M1464.0 738.8 L1488.0 742.9 M1488.0 742.9 L1489.0 744.0 M338.7 768.0 L360.0 754.6 M376.9 744.0 L360.0 754.6 M455.2 744.0 L456.0 744.7 M456.0 744.7 L470.5 768.0 M629.0 768.0 L648.0 754.8 M648.0 754.8 L672.0 747.7 M672.0 747.7 L696.0 744.9 M719.8 744.0 L696.0 744.9 M720.3 744.0 L744.0 744.7 M744.0 744.7 L768.0 747.2 M768.0 747.2 L792.0 753.3 M792.0 753.3 L815.2 768.0 M876.4 744.0 L888.0 751.0 M888.0 751.0 L912.0 762.8 M912.0 762.8 L925.4 768.0 M1012.3 768.0 L1032.0 758.1 M1032.0 758.1 L1056.0 755.0 M1056.0 755.0 L1080.0 764.7 M1080.0 764.7 L1083.7 768.0 M1225.5 744.0 L1230.5 768.0 M1431.5 768.0 L1440.0 756.3 M1456.7 744.0 L1440.0 756.3 M1489.0 744.0 L1507.7 768.0 M302.4 792.0 L312.0 785.3 M312.0 785.3 L336.0 769.7 M338.7 768.0 L336.0 769.7 M470.5 768.0 L480.0 788.3 M480.0 788.3 L481.7 792.0 M614.0 792.0 L624.0 774.9 M629.0 768.0 L624.0 774.9 M815.2 768.0 L816.0 773.4 M816.0 773.4 L817.8 792.0 M925.4 768.0 L936.0 771.7 M936.0 771.7 L960.0 777.0 M960.0 777.0 L984.0 776.7 M984.0 776.7 L1008.0 769.5 M1012.3 768.0 L1008.0 769.5 M1083.7 768.0 L1104.0 780.0 M1104.0 780.0 L1117.6 792.0 M1230.5 768.0 L1237.8 792.0 M1415.3 792.0 L1416.0 790.8 M1431.5 768.0 L1416.0 790.8 M1507.7 768.0 L1512.0 777.5 M1512.0 777.5 L1516.4 792.0 M276.8 816.0 L288.0 803.8 M302.4 792.0 L288.0 803.8 M481.7 792.0 L491.9 816.0 M614.0 792.0 L607.7 816.0 M811.7 816.0 L816.0 797.8 M817.8 792.0 L816.0 797.8 M1117.6 792.0 L1128.0 799.9 M1128.0 799.9 L1145.9 816.0 M1237.8 792.0 L1246.4 816.0 M1415.3 792.0 L1402.4 816.0 M1516.4 792.0 L1518.3 816.0 M259.3 840.0 L264.0 832.1 M276.8 816.0 L264.0 832.1 M491.9 816.0 L501.6 840.0 M607.7 816.0 L605.4 840.0 M811.7 816.0 L802.4 840.0 M1145.9 816.0 L1152.0 821.7 M1152.0 821.7 L1171.9 840.0 M1246.4 816.0 L1248.0 821.4 M1248.0 821.4 L1253.6 840.0 M1388.0 840.0 L1392.0 833.8 M1402.4 816.0 L1392.0 833.8 M1518.3 816.0 L1517.4 840.0 M259.3 840.0 L246.1 864.0 M501.6 840.0 L504.0 846.7 M504.0 846.7 L515.8 864.0 M605.4 840.0 L600.4 864.0 M788.4 864.0 L792.0 859.7 M802.4 840.0 L792.0 859.7 M1171.9 840.0 L1176.0 844.8 M1176.0 844.8 L1195.8 864.0 M1253.6 840.0 L1257.4 864.0 M1388.0 840.0 L1375.4 864.0 M1517.4 840.0 L1517.4 864.0 M234.2 888.0 L240.0 876.1 M246.1 864.0 L240.0 876.1 M515.8 864.0 L528.0 880.2 M528.0 880.2 L552.0 884.2 M552.0 884.2 L576.0 878.4 M576.0 878.4 L600.0 864.4 M600.4 864.0 L600.0 864.4 M640.6 888.0 L648.0 884.7 M648.0 884.7 L672.0 880.7 M672.0 880.7 L696.0 882.6 M696.0 882.6 L720.0 886.7 M720.0 886.7 L739.8 888.0 M745.5 888.0 L768.0 882.8 M788.4 864.0 L768.0 882.8 M1195.8 864.0 L1200.0 870.8 M1200.0 870.8 L1219.2 888.0 M1257.4 864.0 L1251.7 888.0 M1367.4 888.0 L1368.0 886.6 M1375.4 864.0 L1368.0 886.6 M1517.4 864.0 L1522.0 888.0 M234.2 888.0 L222.3 912.0 M640.6 888.0 L640.7 912.0 M739.8 888.0 L744.0 888.4 M745.5 888.0 L744.0 888.4 M1219.2 888.0 L1224.0 896.9 M1224.0 896.9 L1248.0 895.5 M1251.7 888.0 L1248.0 895.5 M1367.4 888.0 L1362.2 912.0 M1522.0 888.0 L1532.3 912.0 M208.0 936.0 L216.0 923.8 M222.3 912.0 L216.0 923.8 M640.7 912.0 L648.0 922.4 M648.0 922.4 L655.3 936.0 M1362.2 912.0 L1353.7 936.0 M1532.3 912.0 L1536.0 918.0 M1536.0 918.0 L1545.0 936.0 M189.9 960.0 L192.0 957.8 M208.0 936.0 L192.0 957.8 M493.4 960.0 L504.0 952.8 M504.0 952.8 L520.4 960.0 M655.3 936.0 L672.0 955.8 M672.0 955.8 L675.6 960.0 M1183.3 960.0 L1200.0 950.1 M1200.0 950.1 L1224.0 939.9 M1224.0 939.9 L1248.0 940.4 M1248.0 940.4 L1272.0 949.7 M1272.0 949.7 L1296.0 956.6 M1296.0 956.6 L1320.0 956.0 M1320.0 956.0 L1344.0 945.6 M1353.7 936.0 L1344.0 945.6 M1545.0 936.0 L1557.8 960.0 M189.9 960.0 L170.0 984.0 M458.3 984.0 L480.0 964.6 M493.4 960.0 L480.0 964.6 M520.4 960.0 L528.0 962.7 M528.0 962.7 L543.7 984.0 M675.6 960.0 L696.0 980.9 M696.0 980.9 L699.4 984.0 M1138.0 984.0 L1152.0 974.5 M1152.0 974.5 L1176.0 962.5 M1183.3 960.0 L1176.0 962.5 M1557.8 960.0 L1560.0 964.6 M1560.0 964.6 L1568.3 984.0 M155.2 1008.0 L168.0 987.2 M170.0 984.0 L168.0 987.2 M433.1 1008.0 L456.0 985.5 M458.3 984.0 L456.0 985.5 M543.7 984.0 L552.0 996.2 M552.0 996.2 L558.1 1008.0 M699.4 984.0 L720.0 1003.1 M720.0 1003.1 L726.3 1008.0 M1116.5 1008.0 L1128.0 992.4 M1138.0 984.0 L1128.0 992.4 M1568.3 984.0 L1575.0 1008.0 M155.2 1008.0 L146.9 1032.0 M407.3 1032.0 L408.0 1031.3 M408.0 1031.3 L432.0 1008.9 M433.1 1008.0 L432.0 1008.9 M558.1 1008.0 L571.5 1032.0 M726.3 1008.0 L744.0 1020.7 M744.0 1020.7 L758.0 1032.0 M1116.5 1008.0 L1108.8 1032.0 M1575.0 1008.0 L1574.4 1032.0 M141.9 1056.0 L144.0 1046.5 M146.9 1032.0 L144.0 1046.5 M379.3 1056.0 L384.0 1052.4 M407.3 1032.0 L384.0 1052.4 M571.5 1032.0 L576.0 1038.4 M576.0 1038.4 L591.1 1056.0 M758.0 1032.0 L768.0 1039.9 M768.0 1039.9 L779.6 1056.0 M1108.8 1032.0 L1105.9 1056.0 M1557.4 1056.0 L1560.0 1054.0 M1574.4 1032.0 L1560.0 1054.0 M141.9 1056.0 L137.1 1080.0 M348.7 1080.0 L360.0 1071.9 M379.3 1056.0 L360.0 1071.9 M591.1 1056.0 L600.0 1064.6 M600.0 1064.6 L620.7 1080.0 M779.6 1056.0 L792.0 1076.1 M792.0 1076.1 L793.4 1080.0 M1105.9 1056.0 L1105.0 1080.0 M1463.7 1080.0 L1464.0 1079.9 M1464.0 1079.9 L1488.0 1073.5 M1488.0 1073.5 L1512.0 1070.0 M1512.0 1070.0 L1536.0 1065.2 M1557.4 1056.0 L1536.0 1065.2 M0.0 1091.0 L24.0 1094.7 M24.0 1094.7 L45.1 1104.0 M137.1 1080.0 L130.9 1104.0 M318.8 1104.0 L336.0 1090.3 M348.7 1080.0 L336.0 1090.3 M620.7 1080.0 L624.0 1082.7 M624.0 1082.7 L648.0 1101.5 M648.0 1101.5 L650.7 1104.0 M793.4 1080.0 L802.1 1104.0 M1105.0 1080.0 L1105.6 1104.0 M1428.6 1104.0 L1440.0 1093.9 M1463.7 1080.0 L1440.0 1093.9" stroke="#7a2e1c"/>
    <path d="M264.6 0.0 L275.8 24.0 M522.0 0.0 L528.0 8.5 M528.0 8.5 L540.6 24.0 M275.8 24.0 L288.0 43.6 M288.0 43.6 L296.3 48.0 M540.6 24.0 L550.0 48.0 M296.3 48.0 L312.0 56.1 M312.0 56.1 L336.0 59.9 M336.0 59.9 L360.0 66.2 M360.0 66.2 L369.2 72.0 M550.0 48.0 L552.0 68.5 M552.0 68.5 L552.3 72.0 M369.2 72.0 L384.0 87.5 M384.0 87.5 L389.3 96.0 M551.3 96.0 L552.0 79.0 M552.3 72.0 L552.0 79.0 M1885.0 96.0 L1896.0 86.0 M1896.0 86.0 L1920.0 82.6 M1920.0 82.6 L1932.5 96.0 M253.3 120.0 L264.0 116.2 M264.0 116.2 L270.7 120.0 M389.3 96.0 L400.3 120.0 M551.3 96.0 L548.6 120.0 M1722.7 120.0 L1728.0 115.2 M1728.0 115.2 L1752.0 113.8 M1752.0 113.8 L1763.9 120.0 M1885.0 96.0 L1876.3 120.0 M1932.5 96.0 L1944.0 111.7 M230.6 144.0 L240.0 126.2 M253.3 120.0 L240.0 126.2 M270.7 120.0 L288.0 129.7 M288.0 129.7 L300.9 144.0 M400.3 120.0 L408.0 136.8 M408.0 136.8 L411.8 144.0 M548.6 120.0 L545.0 144.0 M747.8 144.0 L768.0 132.0 M768.0 132.0 L792.0 126.8 M792.0 126.8 L816.0 134.8 M816.0 134.8 L824.4 144.0 M1702.1 144.0 L1704.0 140.8 M1722.7 120.0 L1704.0 140.8 M1763.9 120.0 L1766.3 144.0 M1876.3 120.0 L1889.0 144.0 M230.6 144.0 L228.2 168.0 M300.9 144.0 L312.0 153.9 M312.0 153.9 L327.4 168.0 M411.8 144.0 L432.0 166.7 M432.0 166.7 L434.7 168.0 M545.0 144.0 L530.7 168.0 M707.1 168.0 L720.0 161.9 M720.0 161.9 L744.0 146.3 M747.8 144.0 L744.0 146.3 M824.4 144.0 L831.4 168.0 M1702.1 144.0 L1691.3 168.0 M1766.3 144.0 L1752.7 168.0 M1889.0 144.0 L1896.0 150.0 M1896.0 150.0 L1919.2 168.0 M1933.2 168.0 L1944.0 166.6 M228.2 168.0 L229.7 192.0 M327.4 168.0 L336.0 173.6 M336.0 173.6 L360.0 189.0 M360.0 189.0 L364.5 192.0 M434.7 168.0 L456.0 174.8 M456.0 174.8 L480.0 176.4 M480.0 176.4 L504.0 174.9 M504.0 174.9 L528.0 169.2 M530.7 168.0 L528.0 169.2 M588.3 192.0 L600.0 186.6 M600.0 186.6 L624.0 180.9 M624.0 180.9 L648.0 178.8 M648.0 178.8 L672.0 177.8 M672.0 177.8 L696.0 173.1 M707.1 168.0 L696.0 173.1 M831.4 168.0 L827.5 192.0 M1691.3 168.0 L1690.9 192.0 M1733.7 192.0 L1752.0 168.9 M1752.7 168.0 L1752.0 168.9 M1919.2 168.0 L1920.0 168.5 M1933.2 168.0 L1920.0 168.5 M229.7 192.0 L229.1 216.0 M364.5 192.0 L384.0 209.7 M384.0 209.7 L388.0 216.0 M588.3 192.0 L586.2 216.0 M827.5 192.0 L818.3 216.0 M1690.9 192.0 L1704.0 209.4 M1704.0 209.4 L1728.0 198.8 M1733.7 192.0 L1728.0 198.8 M229.1 216.0 L223.2 240.0 M388.0 216.0 L394.1 240.0 M586.2 216.0 L600.0 235.7 M600.0 235.7 L602.7 240.0 M803.7 240.0 L816.0 220.5 M818.3 216.0 L816.0 220.5 M1289.1 240.0 L1296.0 235.4 M1296.0 235.4 L1320.0 228.8 M1320.0 228.8 L1344.0 226.6 M1344.0 226.6 L1368.0 224.7 M1368.0 224.7 L1392.0 221.3 M1392.0 221.3 L1416.0 217.6 M1416.0 217.6 L1440.0 217.5 M1440.0 217.5 L1464.0 225.4 M1464.0 225.4 L1482.9 240.0 M211.6 264.0 L216.0 255.1 M223.2 240.0 L216.0 255.1 M394.1 240.0 L391.4 264.0 M602.7 240.0 L624.0 255.9 M624.0 255.9 L635.7 264.0 M787.9 264.0 L792.0 259.3 M803.7 240.0 L792.0 259.3 M1289.1 240.0 L1281.8 264.0 M1482.9 240.0 L1488.0 243.7 M1488.0 243.7 L1508.8 264.0 M211.6 264.0 L193.3 288.0 M381.7 288.0 L384.0 281.5 M391.4 264.0 L384.0 281.5 M635.7 264.0 L648.0 270.7 M648.0 270.7 L672.0 283.1 M672.0 283.1 L681.7 288.0 M787.9 264.0 L769.3 288.0 M1281.8 264.0 L1288.3 288.0 M1508.8 264.0 L1512.0 266.9 M1512.0 266.9 L1533.1 288.0 M169.5 312.0 L192.0 289.5 M193.3 288.0 L192.0 289.5 M381.7 288.0 L366.0 312.0 M681.7 288.0 L696.0 295.8 M696.0 295.8 L720.0 306.7 M720.0 306.7 L744.0 308.0 M744.0 308.0 L768.0 290.2 M769.3 288.0 L768.0 290.2 M1288.3 288.0 L1296.0 303.8 M1296.0 303.8 L1300.5 312.0 M1533.1 288.0 L1536.0 291.1 M1536.0 291.1 L1556.6 312.0 M154.8 336.0 L168.0 314.0 M169.5 312.0 L168.0 314.0 M345.0 336.0 L360.0 318.9 M366.0 312.0 L360.0 318.9 M1300.5 312.0 L1318.6 336.0 M1556.6 312.0 L1560.0 316.1 M1560.0 316.1 L1581.0 336.0 M154.8 336.0 L151.4 360.0 M318.9 360.0 L336.0 345.0 M345.0 336.0 L336.0 345.0 M1318.6 336.0 L1320.0 337.4 M1320.0 337.4 L1344.0 351.7 M1344.0 351.7 L1368.0 358.0 M1368.0 358.0 L1379.9 360.0 M1581.0 336.0 L1584.0 339.4 M1584.0 339.4 L1608.0 355.4 M1608.0 355.4 L1621.1 360.0 M151.4 360.0 L156.0 384.0 M287.3 384.0 L288.0 383.6 M288.0 383.6 L312.0 366.1 M318.9 360.0 L312.0 366.1 M1379.9 360.0 L1392.0 361.4 M1392.0 361.4 L1416.0 365.6 M1416.0 365.6 L1440.0 372.7 M1440.0 372.7 L1464.0 383.5 M1464.0 383.5 L1465.1 384.0 M1621.1 360.0 L1632.0 366.2 M1632.0 366.2 L1656.0 380.3 M1656.0 380.3 L1659.3 384.0 M156.0 384.0 L164.8 408.0 M253.5 408.0 L264.0 401.0 M287.3 384.0 L264.0 401.0 M1465.1 384.0 L1488.0 395.6 M1488.0 395.6 L1511.2 408.0 M1659.3 384.0 L1658.1 408.0 M164.8 408.0 L168.0 414.5 M168.0 414.5 L186.6 432.0 M219.3 432.0 L240.0 419.7 M253.5 408.0 L240.0 419.7 M1511.2 408.0 L1512.0 408.6 M1512.0 408.6 L1536.0 424.7 M1536.0 424.7 L1546.9 432.0 M1639.0 432.0 L1656.0 410.8 M1658.1 408.0 L1656.0 410.8 M186.6 432.0 L192.0 436.0 M192.0 436.0 L216.0 434.4 M219.3 432.0 L216.0 434.4 M1546.9 432.0 L1560.0 449.4 M1560.0 449.4 L1569.8 456.0 M1611.2 456.0 L1632.0 439.0 M1639.0 432.0 L1632.0 439.0 M1569.8 456.0 L1584.0 470.7 M1584.0 470.7 L1608.0 459.4 M1611.2 456.0 L1608.0 459.4 M928.3 720.0 L936.0 710.0 M936.0 710.0 L960.0 716.0 M960.0 716.0 L964.1 720.0 M1130.7 720.0 L1152.0 709.8 M1152.0 709.8 L1172.3 720.0 M928.3 720.0 L936.0 725.7 M936.0 725.7 L960.0 724.2 M964.1 720.0 L960.0 724.2 M1130.7 720.0 L1129.4 744.0 M1172.3 720.0 L1176.0 722.5 M1176.0 722.5 L1186.0 744.0 M382.4 768.0 L384.0 767.1 M384.0 767.1 L408.0 760.6 M408.0 760.6 L432.0 767.3 M432.0 767.3 L432.7 768.0 M685.8 768.0 L696.0 766.0 M696.0 766.0 L720.0 764.4 M720.0 764.4 L744.0 765.6 M744.0 765.6 L756.0 768.0 M1129.4 744.0 L1146.1 768.0 M1186.0 744.0 L1195.3 768.0 M340.2 792.0 L360.0 780.6 M382.4 768.0 L360.0 780.6 M432.7 768.0 L450.3 792.0 M648.4 792.0 L672.0 773.1 M685.8 768.0 L672.0 773.1 M756.0 768.0 L768.0 772.7 M768.0 772.7 L785.7 792.0 M1146.1 768.0 L1152.0 773.9 M1152.0 773.9 L1172.3 792.0 M1195.3 768.0 L1200.0 789.7 M1200.0 789.7 L1200.2 792.0 M1460.4 792.0 L1464.0 789.1 M1464.0 789.1 L1469.7 792.0 M305.7 816.0 L312.0 810.8 M312.0 810.8 L336.0 794.6 M340.2 792.0 L336.0 794.6 M450.3 792.0 L456.0 803.3 M456.0 803.3 L460.9 816.0 M645.8 816.0 L648.0 795.0 M648.4 792.0 L648.0 795.0 M785.7 792.0 L784.9 816.0 M1172.3 792.0 L1176.0 794.9 M1176.0 794.9 L1200.0 792.7 M1200.2 792.0 L1200.0 792.7 M1437.4 816.0 L1440.0 811.3 M1460.4 792.0 L1440.0 811.3 M1469.7 792.0 L1487.3 816.0 M281.7 840.0 L288.0 832.1 M305.7 816.0 L288.0 832.1 M460.9 816.0 L467.7 840.0 M645.8 816.0 L648.0 820.3 M648.0 820.3 L667.2 840.0 M784.9 816.0 L773.1 840.0 M1437.4 816.0 L1425.4 840.0 M1487.3 816.0 L1488.0 825.5 M1488.0 825.5 L1488.4 840.0 M281.7 840.0 L264.9 864.0 M467.7 840.0 L472.8 864.0 M667.2 840.0 L672.0 842.3 M672.0 842.3 L696.0 850.6 M696.0 850.6 L720.0 856.9 M720.0 856.9 L744.0 857.5 M744.0 857.5 L768.0 845.9 M773.1 840.0 L768.0 845.9 M1414.6 864.0 L1416.0 860.2 M1425.4 840.0 L1416.0 860.2 M1488.4 840.0 L1489.5 864.0 M253.4 888.0 L264.0 865.6 M264.9 864.0 L264.0 865.6 M472.8 864.0 L476.2 888.0 M1414.6 864.0 L1411.0 888.0 M1489.5 864.0 L1495.0 888.0 M253.4 888.0 L242.6 912.0 M476.2 888.0 L475.9 912.0 M1411.0 888.0 L1410.7 912.0 M1495.0 888.0 L1508.0 912.0 M231.9 936.0 L240.0 918.2 M242.6 912.0 L240.0 918.2 M475.9 912.0 L468.9 936.0 M1410.7 912.0 L1409.9 936.0 M1508.0 912.0 L1512.0 916.8 M1512.0 916.8 L1523.2 936.0 M231.9 936.0 L218.7 960.0 M453.6 960.0 L456.0 955.0 M468.9 936.0 L456.0 955.0 M594.3 960.0 L600.0 957.2 M600.0 957.2 L606.4 960.0 M1409.9 936.0 L1404.9 960.0 M1523.2 936.0 L1536.0 955.6 M1536.0 955.6 L1538.3 960.0 M202.4 984.0 L216.0 964.5 M218.7 960.0 L216.0 964.5 M453.6 960.0 L435.4 984.0 M594.3 960.0 L583.6 984.0 M606.4 960.0 L624.0 966.5 M624.0 966.5 L646.8 984.0 M1388.4 984.0 L1392.0 981.4 M1404.9 960.0 L1392.0 981.4 M1538.3 960.0 L1548.2 984.0 M186.8 1008.0 L192.0 999.8 M202.4 984.0 L192.0 999.8 M413.7 1008.0 L432.0 987.4 M435.4 984.0 L432.0 987.4 M583.6 984.0 L589.1 1008.0 M646.8 984.0 L648.0 985.0 M648.0 985.0 L669.0 1008.0 M1150.5 1008.0 L1152.0 1006.7 M1152.0 1006.7 L1176.0 995.8 M1176.0 995.8 L1200.0 992.1 M1200.0 992.1 L1224.0 993.0 M1224.0 993.0 L1248.0 995.3 M1248.0 995.3 L1272.0 996.6 M1272.0 996.6 L1296.0 997.0 M1296.0 997.0 L1320.0 996.5 M1320.0 996.5 L1344.0 994.9 M1344.0 994.9 L1368.0 991.4 M1388.4 984.0 L1368.0 991.4 M1548.2 984.0 L1553.0 1008.0 M186.8 1008.0 L176.7 1032.0 M387.9 1032.0 L408.0 1013.3 M413.7 1008.0 L408.0 1013.3 M589.1 1008.0 L600.0 1030.8 M600.0 1030.8 L600.9 1032.0 M669.0 1008.0 L672.0 1012.4 M672.0 1012.4 L686.5 1032.0 M1150.5 1008.0 L1133.5 1032.0 M1553.0 1008.0 L1545.0 1032.0 M176.7 1032.0 L171.2 1056.0 M356.5 1056.0 L360.0 1053.8 M360.0 1053.8 L384.0 1035.4 M387.9 1032.0 L384.0 1035.4 M600.9 1032.0 L624.0 1050.8 M624.0 1050.8 L633.2 1056.0 M686.5 1032.0 L696.0 1045.7 M696.0 1045.7 L710.4 1056.0 M1126.8 1056.0 L1128.0 1049.8 M1133.5 1032.0 L1128.0 1049.8 M1456.5 1056.0 L1464.0 1053.8 M1464.0 1053.8 L1488.0 1051.1 M1488.0 1051.1 L1512.0 1048.0 M1512.0 1048.0 L1536.0 1039.4 M1545.0 1032.0 L1536.0 1039.4 M171.2 1056.0 L168.6 1080.0 M321.2 1080.0 L336.0 1070.1 M356.5 1056.0 L336.0 1070.1 M633.2 1056.0 L648.0 1063.1 M648.0 1063.1 L672.0 1074.6 M672.0 1074.6 L678.2 1080.0 M710.4 1056.0 L720.0 1060.9 M720.0 1060.9 L744.0 1071.8 M744.0 1071.8 L754.2 1080.0 M1126.8 1056.0 L1125.1 1080.0 M1418.9 1080.0 L1440.0 1061.3 M1456.5 1056.0 L1440.0 1061.3 M168.6 1080.0 L168.7 1104.0 M290.7 1104.0 L312.0 1087.0 M321.2 1080.0 L312.0 1087.0 M678.2 1080.0 L690.8 1104.0 M754.2 1080.0 L768.0 1091.1 M768.0 1091.1 L775.9 1104.0 M1125.1 1080.0 L1126.2 1104.0 M1394.5 1104.0 L1416.0 1082.5 M1418.9 1080.0 L1416.0 1082.5" stroke="#d14e24"/>
    <path d="M294.4 0.0 L312.0 15.3 M312.0 15.3 L336.0 22.6 M336.0 22.6 L349.4 24.0 M483.8 0.0 L497.9 24.0 M349.4 24.0 L360.0 25.2 M360.0 25.2 L384.0 30.1 M384.0 30.1 L408.0 46.4 M408.0 46.4 L409.4 48.0 M497.9 24.0 L504.0 34.1 M504.0 34.1 L510.7 48.0 M409.4 48.0 L424.0 72.0 M510.7 48.0 L516.1 72.0 M424.0 72.0 L432.0 88.5 M432.0 88.5 L436.4 96.0 M516.1 72.0 L514.7 96.0 M436.4 96.0 L453.8 120.0 M514.7 96.0 L504.5 120.0 M453.8 120.0 L456.0 122.1 M456.0 122.1 L480.0 129.8 M480.0 129.8 L504.0 120.6 M504.5 120.0 L504.0 120.6 M765.9 168.0 L768.0 166.9 M768.0 166.9 L792.0 166.0 M792.0 166.0 L794.3 168.0 M726.8 192.0 L744.0 181.9 M765.9 168.0 L744.0 181.9 M794.3 168.0 L799.3 192.0 M276.6 216.0 L288.0 207.1 M288.0 207.1 L312.0 207.7 M312.0 207.7 L332.1 216.0 M677.7 216.0 L696.0 210.7 M696.0 210.7 L720.0 197.6 M726.8 192.0 L720.0 197.6 M791.1 216.0 L792.0 214.3 M799.3 192.0 L792.0 214.3 M256.9 240.0 L264.0 227.0 M276.6 216.0 L264.0 227.0 M332.1 216.0 L336.0 217.5 M336.0 217.5 L360.0 238.9 M360.0 238.9 L360.7 240.0 M677.7 216.0 L674.2 240.0 M791.1 216.0 L771.3 240.0 M256.9 240.0 L242.3 264.0 M360.7 240.0 L366.4 264.0 M674.2 240.0 L696.0 250.3 M696.0 250.3 L720.0 259.9 M720.0 259.9 L744.0 258.3 M744.0 258.3 L768.0 243.8 M771.3 240.0 L768.0 243.8 M1354.3 264.0 L1368.0 260.5 M1368.0 260.5 L1392.0 255.3 M1392.0 255.3 L1416.0 251.2 M1416.0 251.2 L1440.0 251.5 M1440.0 251.5 L1464.0 259.5 M1464.0 259.5 L1470.4 264.0 M227.0 288.0 L240.0 267.6 M242.3 264.0 L240.0 267.6 M366.4 264.0 L361.0 288.0 M1337.5 288.0 L1344.0 274.0 M1354.3 264.0 L1344.0 274.0 M1470.4 264.0 L1488.0 276.3 M1488.0 276.3 L1501.0 288.0 M209.1 312.0 L216.0 304.0 M227.0 288.0 L216.0 304.0 M345.9 312.0 L360.0 289.5 M361.0 288.0 L360.0 289.5 M1337.5 288.0 L1344.0 298.8 M1344.0 298.8 L1354.9 312.0 M1501.0 288.0 L1512.0 298.7 M1512.0 298.7 L1524.4 312.0 M191.3 336.0 L192.0 335.0 M209.1 312.0 L192.0 335.0 M323.5 336.0 L336.0 323.5 M345.9 312.0 L336.0 323.5 M1354.9 312.0 L1368.0 318.8 M1368.0 318.8 L1392.0 329.3 M1392.0 329.3 L1404.3 336.0 M1524.4 312.0 L1536.0 327.9 M1536.0 327.9 L1542.3 336.0 M191.3 336.0 L185.0 360.0 M291.0 360.0 L312.0 345.9 M323.5 336.0 L312.0 345.9 M1404.3 336.0 L1416.0 339.5 M1416.0 339.5 L1440.0 349.0 M1440.0 349.0 L1460.6 360.0 M1542.3 336.0 L1552.9 360.0 M185.0 360.0 L192.0 383.5 M192.0 383.5 L192.5 384.0 M244.0 384.0 L264.0 374.4 M264.0 374.4 L288.0 362.1 M291.0 360.0 L288.0 362.1 M1460.6 360.0 L1464.0 361.4 M1464.0 361.4 L1488.0 371.1 M1488.0 371.1 L1512.0 379.4 M1512.0 379.4 L1536.0 382.6 M1552.9 360.0 L1536.0 382.6 M192.5 384.0 L216.0 392.7 M216.0 392.7 L240.0 386.3 M244.0 384.0 L240.0 386.3 M357.0 816.0 L360.0 814.5 M360.0 814.5 L384.0 806.8 M384.0 806.8 L408.0 808.3 M408.0 808.3 L416.7 816.0 M714.5 816.0 L720.0 807.2 M720.0 807.2 L739.5 816.0 M316.0 840.0 L336.0 827.3 M357.0 816.0 L336.0 827.3 M416.7 816.0 L430.5 840.0 M714.5 816.0 L720.0 818.4 M739.5 816.0 L720.0 818.4 M290.8 864.0 L312.0 842.7 M316.0 840.0 L312.0 842.7 M430.5 840.0 L432.0 844.4 M432.0 844.4 L436.1 864.0 M276.2 888.0 L288.0 867.2 M290.8 864.0 L288.0 867.2 M436.1 864.0 L440.7 888.0 M276.2 888.0 L264.6 912.0 M440.7 888.0 L442.6 912.0 M256.0 936.0 L264.0 913.4 M264.6 912.0 L264.0 913.4 M442.6 912.0 L439.3 936.0 M1463.3 936.0 L1464.0 934.9 M1464.0 934.9 L1470.8 936.0 M256.0 936.0 L246.9 960.0 M429.7 960.0 L432.0 953.7 M439.3 936.0 L432.0 953.7 M1463.3 936.0 L1452.9 960.0 M1470.8 936.0 L1488.0 937.8 M1488.0 937.8 L1509.8 960.0 M236.0 984.0 L240.0 976.3 M246.9 960.0 L240.0 976.3 M429.7 960.0 L414.6 984.0 M1452.9 960.0 L1449.4 984.0 M1509.8 960.0 L1512.0 962.8 M1512.0 962.8 L1520.7 984.0 M236.0 984.0 L222.9 1008.0 M393.4 1008.0 L408.0 991.5 M414.6 984.0 L408.0 991.5 M1449.4 984.0 L1454.9 1008.0 M1520.7 984.0 L1520.1 1008.0 M211.1 1032.0 L216.0 1021.6 M222.9 1008.0 L216.0 1021.6 M364.7 1032.0 L384.0 1016.7 M393.4 1008.0 L384.0 1016.7 M1287.4 1032.0 L1296.0 1031.1 M1296.0 1031.1 L1320.0 1030.3 M1320.0 1030.3 L1344.0 1031.6 M1344.0 1031.6 L1346.7 1032.0 M1454.9 1008.0 L1464.0 1014.5 M1464.0 1014.5 L1488.0 1021.0 M1488.0 1021.0 L1512.0 1016.0 M1520.1 1008.0 L1512.0 1016.0 M211.1 1032.0 L205.1 1056.0 M323.3 1056.0 L336.0 1049.6 M336.0 1049.6 L360.0 1035.6 M364.7 1032.0 L360.0 1035.6 M1161.4 1056.0 L1176.0 1038.8 M1176.0 1038.8 L1200.0 1033.3 M1200.0 1033.3 L1224.0 1036.3 M1224.0 1036.3 L1248.0 1037.7 M1248.0 1037.7 L1272.0 1034.5 M1287.4 1032.0 L1272.0 1034.5 M1346.7 1032.0 L1368.0 1038.6 M1368.0 1038.6 L1385.0 1056.0 M205.1 1056.0 L205.4 1080.0 M282.5 1080.0 L288.0 1076.9 M288.0 1076.9 L312.0 1062.6 M323.3 1056.0 L312.0 1062.6 M1161.4 1056.0 L1154.7 1080.0 M1385.0 1056.0 L1376.5 1080.0 M205.4 1080.0 L216.0 1103.2 M216.0 1103.2 L221.8 1104.0 M241.7 1104.0 L264.0 1092.0 M282.5 1080.0 L264.0 1092.0 M1154.7 1080.0 L1158.9 1104.0 M1348.4 1104.0 L1368.0 1088.2 M1376.5 1080.0 L1368.0 1088.2" stroke="#ffb45b"/>
    <path d="M277.8 264.0 L288.0 253.6 M288.0 253.6 L312.0 247.4 M312.0 247.4 L336.0 263.8 M336.0 263.8 L336.1 264.0 M259.8 288.0 L264.0 281.1 M277.8 264.0 L264.0 281.1 M335.8 288.0 L336.0 274.5 M336.1 264.0 L336.0 274.5 M259.8 288.0 L249.6 312.0 M335.8 288.0 L319.7 312.0 M249.6 312.0 L251.9 336.0 M288.2 336.0 L312.0 319.7 M319.7 312.0 L312.0 319.7 M251.9 336.0 L264.0 340.2 M264.0 340.2 L288.0 336.1 M288.2 336.0 L288.0 336.1 M311.3 888.0 L312.0 887.2 M312.0 887.2 L336.0 873.9 M336.0 873.9 L360.0 871.3 M360.0 871.3 L384.0 881.2 M384.0 881.2 L390.1 888.0 M311.3 888.0 L293.1 912.0 M390.1 888.0 L406.3 912.0 M282.4 936.0 L288.0 921.3 M293.1 912.0 L288.0 921.3 M406.3 912.0 L408.0 919.2 M408.0 919.2 L410.3 936.0 M282.4 936.0 L275.6 960.0 M405.3 960.0 L408.0 946.9 M410.3 936.0 L408.0 946.9 M275.6 960.0 L270.3 984.0 M405.3 960.0 L391.7 984.0 M270.3 984.0 L267.2 1008.0 M368.2 1008.0 L384.0 992.9 M391.7 984.0 L384.0 992.9 M267.2 1008.0 L275.5 1032.0 M319.5 1032.0 L336.0 1026.8 M336.0 1026.8 L360.0 1014.3 M368.2 1008.0 L360.0 1014.3 M275.5 1032.0 L288.0 1036.5 M288.0 1036.5 L312.0 1034.5 M319.5 1032.0 L312.0 1034.5" stroke="#7a2e1c"/>
  </g>
</svg>