<svg xmlns="http://www.w3.org/2000/svg" width="1920" height="1080" viewBox="0 0 1920 1080" fill="none">
  <defs>
    <clipPath id="c"><rect width="1920" height="1080"/></clipPath>
  </defs>
  <g clip-path="url(#c)" fill="none" stroke-linecap="round" stroke-linejoin="round" vector-effect="non-scaling-stroke">
    <g stroke="#7a2e1c" stroke-width="1.35" stroke-opacity="0.68">
      <path d="M-80 120 C70 70 160 150 285 118 S520 52 650 118 845 224 1030 160 1245 58 1420 116 1650 210 2000 132"/>
      <path d="M-95 230 C60 180 165 252 300 216 S530 142 674 206 850 316 1046 246 1248 156 1432 214 1668 325 2005 238"/>
      <path d="M-65 345 C84 300 192 374 326 330 S540 250 690 318 875 435 1068 362 1268 270 1442 328 1665 448 1990 360"/>
      <path d="M-90 470 C62 420 188 505 334 456 S552 372 708 444 900 562 1088 492 1295 398 1465 456 1688 576 2004 494"/>
      <path d="M-75 606 C78 548 210 635 360 584 S584 500 735 568 930 700 1110 630 1328 528 1500 600 1702 720 1995 642"/>
      <path d="M-58 745 C96 680 230 768 386 720 S616 638 762 704 960 830 1138 764 1368 660 1535 734 1722 852 2005 792"/>
      <path d="M10 900 C180 826 305 928 472 864 S700 792 850 850 1040 970 1230 918 1442 805 1614 872 1780 976 1970 930"/>
    </g>
    <g stroke="#b56b2a" stroke-width="1.45" stroke-opacity="0.72">
      <path d="M520 126 c72 -38 160 -18 198 38 42 58 12 134 -64 172 -82 42 -190 34 -250 -20 -58 -52 -54 -128 12 -168 28 -18 62 -28 104 -22z"/>
      <path d="M548 158 c46 -24 104 -12 130 24 28 38 6 88 -46 112 -54 26 -126 20 -164 -14 -36 -32 -34 -80 6 -106 20 -12 44 -18 74 -16z"/>
      <path d="M585 196 c24 -12 56 -6 70 13 14 20 2 44 -25 57 -30 14 -68 12 -88 -7 -19 -17 -18 -42 3 -55 10 -6 24 -9 40 -8z"/>
      <path d="M1228 128 c88 -34 190 -4 232 62 44 70 3 150 -90 180 -88 30 -200 10 -260 -46 -60 -58 -42 -140 42 -180 22 -10 48 -16 76 -16z"/>
      <path d="M1252 170 c54 -22 122 -4 150 37 28 42 2 92 -56 112 -58 20 -130 8 -168 -28 -38 -35 -28 -84 24 -110 16 -8 32 -11 50 -11z"/>
      <path d="M139 642 c74 -42 168 -28 218 30 54 64 24 152 -66 198 -88 44 -204 34 -268 -24 -62 -58 -50 -145 28 -190 25 -14 56 -22 88 -14z"/>
      <path d="M170 682 c46 -26 110 -18 142 18 34 38 14 92 -42 118 -58 28 -132 22 -174 -16 -40 -36 -34 -88 14 -114 18 -10 38 -12 60 -6z"/>
      <path d="M806 628 c64 -30 150 -14 194 34 45 50 23 118 -48 150 -72 32 -166 22 -220 -24 -52 -46 -46 -112 14 -146 18 -10 38 -14 60 -14z"/>
      <path d="M834 662 c36 -16 82 -8 106 18 23 26 12 62 -26 80 -38 18 -88 14 -116 -10 -26 -22 -24 -58 4 -76 10 -7 22 -11 32 -12z"/>
      <path d="M1390 568 c70 -34 160 -14 205 42 46 58 20 134 -58 170 -78 36 -178 26 -232 -24 -54 -50 -44 -122 22 -160 20 -12 40 -22 63 -28z"/>
      <path d="M1420 604 c42 -20 98 -10 126 20 28 32 12 76 -34 98 -48 22 -108 16 -140 -14 -32 -30 -26 -74 14 -94 12 -6 24 -10 34 -10z"/>
    </g>
    <g stroke="#d9b06a" stroke-width="1.15" stroke-opacity="0.35">
      <path d="M-20 42 C160 8 315 42 470 16 S690 -32 884 22 1130 70 1340 28 1620 -20 1970 44"/>
      <path d="M-40 1030 C150 960 330 1010 510 980 S790 910 1018 960 1320 1040 1530 990 1740 942 1980 1015"/>
      <path d="M990 438 c60 -26 126 -10 154 34 28 44 8 98 -45 120 -58 25 -130 16 -170 -22 -38 -36 -34 -88 10 -116 14 -8 31 -14 51 -16z"/>
      <path d="M1008 466 c32 -14 72 -6 90 17 18 24 7 54 -24 68 -34 16 -78 11 -100 -12 -21 -22 -18 -53 8 -66 8 -4 17 -7 26 -7z"/>
      <path d="M1690 298 c48 -20 110 -8 142 26 34 36 22 86 -26 110 -52 26 -120 18 -158 -18 -36 -34 -30 -82 14 -106 10 -6 20 -10 28 -12z"/>
      <path d="M1715 334 c22 -9 52 -4 66 12 14 16 9 38 -11 49 -24 14 -58 10 -75 -8 -16 -17 -14 -38 4 -48 5 -3 10 -5 16 -5z"/>
    </g>
  </g>
</svg>
